$MeshFormat
2.2 0 8
$EndMeshFormat
$PhysicalNames
11
2 1 "Sphere surface_1"
2 2 "Sphere surface_2"
2 3 "Electrode surface_1"
2 4 "Electrode surface_2"
2 5 "Gate surface_1"
2 6 "Gate surface_2"
2 7 "Surface of insulator"
2 8 "Bottom layer"
2 11 "Surrounding space surface"
3 9 "Insulator"
3 10 "Surrounding space"
$EndPhysicalNames
$Nodes
298
1 210 -2.449293597853543e-14 200
2 210 0 0
3 -45.5 -55 200
4 -45.5 -175 200
5 14.5 -175 200
6 14.5 -55 200
7 -51.5 20 200
8 -191.5 20 200
9 -191.5 -20 200
10 -51.5 -20 200
11 -0.5 -3.67394039744206e-15 200
12 30.5 -3.67394039744206e-15 200
13 51.5 -20 200
14 51.5 20 200
15 191.5 -20 200
16 191.5 20 200
17 45.5 55 200
18 -14.5 55 200
19 45.5 175 200
20 -14.5 175 200
21 1.285879139104721e-14 -2.999519565323715e-30 410
22 -15.5 -55 230
23 -51.5 0 220
24 -15.5 -7.888609052210118e-31 215
25 15.5 0 215
26 51.5 0 220
27 15.5 55 230
28 184.9399099467537 94.74744904761793 200
29 117.3376613020618 165.8671250298877 200
30 24.72180546902409 198.6092971413388 200
31 -72.91287549969569 187.557912656007 200
32 -155.4848108172172 134.4324547965112 200
33 -203.6016946851623 48.99303408609654 200
34 -203.6016946851619 -48.99303408609805 200
35 -155.4848108172162 -134.4324547965123 200
36 -72.91287549969402 -187.5579126560076 200
37 24.72180546902403 -198.6092971413389 200
38 117.337661302061 -165.8671250298882 200
39 184.9399099467533 -94.74744904761866 200
40 210 0 99.99999999999973
41 184.9399099467537 94.74744904761793 0
42 117.3376613020618 165.8671250298877 0
43 24.72180546902409 198.6092971413388 0
44 -72.91287549969569 187.557912656007 0
45 -155.4848108172172 134.4324547965112 0
46 -203.6016946851623 48.99303408609654 0
47 -203.6016946851619 -48.99303408609805 0
48 -155.4848108172162 -134.4324547965123 0
49 -72.91287549969402 -187.5579126560076 0
50 24.72180546902403 -198.6092971413389 0
51 117.337661302061 -165.8671250298882 0
52 184.9399099467533 -94.74744904761866 0
53 -45.5 -115 200
54 -15.50000000000001 -175 200
55 14.5 -115 200
56 -0.4999999999999662 -29.01923788646686 200
57 -30.49999999999994 -29.0192378864668 200
58 -121.4999999999998 20 200
59 -191.5 2.486899575160351e-14 200
60 -121.4999999999998 -20 200
61 -34.17949192431126 -10.00000000000006 200
62 -34.17949192431121 9.999999999999959 200
63 -6.078279617109317 11.67181155719292 200
64 -18.69604810610067 14.65555445909469 200
65 -28.99845367413247 6.541540216745563 200
66 -29.0576639105082 -6.417924063877933 200
67 -18.8672765765366 -14.61716280463168 200
68 -6.129266387546052 -11.71278581569841 200
69 24.92172038289068 11.67181155719292 200
70 12.30395189389933 14.65555445909469 200
71 2.00154632586753 6.541540216745563 200
72 1.942336089491798 -6.417924063877933 200
73 12.1327234234634 -14.61716280463168 200
74 24.87073361245395 -11.71278581569841 200
75 31.5 0 200
76 121.4999999999998 -20 200
77 191.5 2.842170943040401e-14 200
78 121.4999999999998 20 200
79 15.50000000000012 25 200
80 45.5 115 200
81 15.49999999999999 175 200
82 -14.5 115 200
83 194.014702725018 -4.525704470089877e-14 280.3635186295554
84 148.4924240491747 -3.463824224941966e-14 348.4924240491753
85 80.36351862955502 -1.874608111579109e-14 394.0147027250181
86 -0.4999999999999716 -175 225.9807621135332
87 -30.49999999999994 -175 225.9807621135332
88 5.713203435596451 -55 221.2132034355964
89 -36.71320343559639 -55 221.2132034355965
90 -191.5 -10.00000000000005 217.3205080756887
91 -191.5 9.999999999999961 217.3205080756888
92 -51.5 -14.14213562373097 214.1421356237309
93 -51.5 14.14213562373093 214.142135623731
94 -5.786609656005886 -2.37909447872824e-15 211.4302251957344
95 25.21339034399411 -2.37909447872824e-15 211.4302251957344
96 51.5 14.14213562373095 214.142135623731
97 51.5 -14.14213562373095 214.142135623731
98 191.5 0 220
99 -5.713203435596446 55 221.2132034355964
100 36.7132034355964 54.99999999999999 221.2132034355964
101 15.50000000000011 175 230
102 -210.0000000000016 1.922876672703956e-11 105.5118278380094
103 155.4818540585155 134.4355565803161 115.2856127773737
104 155.4818540585148 -134.4355565803167 115.2856127773734
105 -117.4177094350873 -165.8157366299545 96.02527285049128
106 -117.3048964032737 165.8881443775275 99.77550445816148
107 -24.23976826614065 198.6631822600362 104.3183492757637
108 -24.79529819479628 -198.6009871507949 102.6190371695224
109 72.55348524415898 -187.6842810908919 96.15047477150232
110 73.06098043897639 187.5056295747891 96.09918502266727
111 -185.0893953581934 94.4823141560758 97.2150553994562
112 -184.8710565458131 -94.86924981064028 100.1985373551835
113 194.7135369506231 74.90970243718262 77.56459961147205
114 198.953340336242 -64.01224635266111 73.68535004656279
115 200.9843416701765 -57.97250426920708 141.1303315875591
116 199.0205373163886 63.82249852357958 138.5196439485402
117 51.02527801213405 -82.71262100244081 200
118 -53.16264464885833 82.75931863392071 200
119 -90.68498331841838 -82.69090559720121 200
120 90.96070640283077 85.57084775115845 200
121 23.62852000420181 -29.07916694448453 200
122 3.436684254818376 16.14196646117163 200
123 -6.752048332496771 25.40559077949109 200
124 2.190006797011598 -15.77245166841238 200
125 42.91166446038919 -46.66306709097996 200
126 75.48905602002483 -52.0004102879962 200
127 109.8161617143392 -89.61287602155996 200
128 -70.82535675256285 130.6785683444151 200
129 -77.29624582960454 -44.4227263993003 200
130 -82.01653392706572 -138.9362546099442 200
131 -156.5 51.63114392038336 200
132 -152.5542977641593 -61.22327889596232 200
133 53.47114317029974 -145 200
134 87.27382545130322 44.63388296790532 200
135 -28.15023736408085 28.90367623213729 200
136 -45.62344451085994 46.10725410705841 200
137 -77.23557974186481 51.63765934420626 200
138 -110.0004434495096 83.81226829630418 200
139 -27.1946004963595 -14.53458211694961 200
140 145.6209343339561 57.77509897738831 200
141 151.9390179152731 -56.09008126729465 200
142 86.83722273426579 128.296657103373 200
143 125.1392869439736 106.4514355818851 200
144 -15.47528403884762 0.01729050697502161 200
145 15.52471596115238 0.01729050697502161 200
146 -81.81088913245527 0 200
147 -156.2087523055869 1.294720728425839e-15 200
148 -51.5 0 200
149 86.49999999999991 0 200
150 156.2087523055869 0 200
151 -15.5 -84.99999999999999 200
152 -15.49999999999998 -53.85664701025268 200
153 -15.5 -140 200
154 15.5 84.99999999999999 200
155 15.5 140 200
156 -14.52950085178356 108.5714159567413 0
157 43.14402759676187 -112.7603443016125 0
158 -105.5772174380271 -50.05732236864624 0
159 119.4457433353708 25.01819257032602 0
160 -105.5772174380275 50.05732236864554 0
161 53.44982334114585 132.5109538747143 0
162 49.18455083468351 57.18894894622889 0
163 43.93697200493751 -28.52276941988791 0
164 -27.19947830333688 10.57954990806896 0
165 -26.60674489085145 -73.67050564743774 0
166 119.8007190309807 -62.81324920478021 0
167 -87.12610115168101 120.1547764444763 0
168 -85.8465012005711 -118.0002664711109 0
169 -18.43176310658668 -143.0463843020856 0
170 104.8715377520032 95.06653389375498 0
171 -154.5894560615947 -5.524469770534779e-13 0
172 38.3517567006991 70.33760665475934 392.8073066815258
173 -169.7786516712807 -86.21361801613688 284.1460678955219
174 38.35175670069903 -70.33760665476123 392.807306681525
175 -169.7786516712164 86.21361801611096 284.1460678956805
176 -22.8276897157991 181.882685095163 284.3015483441838
177 -22.82768971579842 -181.8826850951632 284.3015483441835
178 149.8374456090158 125.7515372641244 264.9185045563665
179 147.716382585687 -126.3916184436221 268.3198937256855
180 73.04174711056106 171.69956848586 279.1352344056532
181 73.04399015251688 -171.6982808833673 279.1362440940886
182 -107.3355105755429 153.5265532709938 281.1955623657532
183 -109.976686382084 98.36569442055587 346.0737762402877
184 -151.7730753913716 18.3029774530932 343.8596441215278
185 -76.49447954711121 23.14635429825764 394.0565024045646
186 -113.3368723989324 -62.89679311771411 363.9916342238991
187 -96.27419768465383 -136.3619185702275 319.7111620038713
188 -199.703969147736 5.318650681723657 264.7080917424228
189 -12.88335564191163 -128.9447710531976 360.0094462283131
190 24.57849403442367 136.3177255737534 351.6860797472019
191 112.5382598477704 52.75211576980534 368.425410244803
192 92.35619277979399 -54.64241384288996 379.6621730974821
193 81.46860037237727 -122.8122761916473 344.3399435835302
194 -34.35124959991708 -61.41433483811026 396.8798358736792
195 -38.15103256667349 97.10720763312119 379.5776529469315
196 164.3609484240201 65.33458860043835 311.2624725486554
197 163.1286481576099 -64.96181856022285 313.2980688179532
198 -56.48042598587273 142.686445129807 335.8811949470394
199 100.0057458637576 121.5943714500475 333.4098104756444
200 32.09552189224549 -161.4047791068523 319.7835369626522
201 -109.4494394890108 -162.3937275905321 255.1905413256363
202 193.6674086289887 58.737362147577 252.8131059244861
203 193.7281716307649 -58.02848570272333 253.4503656252434
204 -26.98050297095268 -74.75325169141854 227.7163859753386
205 -15.49999999999995 -149.3320096849781 230
206 -3.422173038817524 -75.07093056531485 227.4613564103402
207 -15.53076603668446 -106.816427459626 229.999984224179
208 -6.145754360347297 -34.38583004546628 219.6863934126756
209 -25.37050458637638 -36.49385147906474 221.4498393031605
210 -64.66883446094567 7.65366864730179 218.4775906502257
211 -173.0721687177685 1.209802949635453e-14 220
212 -64.88062037687658 -8.051884640788327 218.3075709402268
213 -95.19624681156222 -0.127129090711868 219.999595950776
214 -37.03165676142196 4.930795354465191 212.8978409473476
215 -41.57305979375425 -6.644335054061916 216.0408438004671
216 -11.29927003180273 8.758071688967128 211.4302251957344
217 -25.92436673610491 0.047627680060426 210.7856529591528
218 -10.74786677960327 -10.12964653391283 209.9903699107485
219 -23.10688115824238 9.734712266679434 208.5070991606621
220 -23.15855697811799 -9.728020517932702 208.4683009993505
221 19.70072996819727 8.758071688967126 211.4302251957344
222 5.075633263895066 0.04762768006042609 210.7856529591528
223 20.25213322039674 -10.12964653391283 209.9903699107485
224 7.893118841757611 9.734712266679431 208.5070991606621
225 7.841443021882011 -9.728020517932714 208.4683009993505
226 38.6281149418883 -5.857864376269043 214.1421356237309
227 39.72671381278136 -14.62643401468994 206.8889157614074
228 64.6688344609457 -7.653668647301806 218.4775906502257
229 159.0006035753553 6.574784518450147 218.8884146644431
230 114.4713070132875 1.570092458683775e-14 220
231 63.59901874288196 -0.08533751750362444 219.999817936874
232 85.5910308327358 2.334496874760551 219.8632858395013
233 162.9806217416738 -10.13908491586474 217.2394593032637
234 135.3297021190893 -0.4164321632926928 219.9956641363415
235 24.28679656440354 35.69217241283247 221.2132034355964
236 37.4396510220329 37.34007071918375 210.3333736421355
237 0.4753332580592527 81.34826701680133 225.9665051420791
238 33.25506099708795 91.96848089835333 224.1817660436472
239 11.16652395670355 125.6668491193893 229.6853665192494
240 34.28555508063209 146.8544264147115 223.3902313009627
241 -5.996255164824277 149.6907108564174 220.9263234680334
242 10.2869471383422 -6.479019520277869 96.12846295763087
243 -50.91173761479899 6.054393072354094 135.3813856849799
244 10.3411371026905 6.55023472359184 151.0284967019437
245 -13.3194065415495 91.43733848603939 101.9097191178654
246 -37.43911018867438 -93.06088981132559 103.6444867950899
247 89.86717521480958 34.73244337408294 115.2654635152903
248 57.0564676905404 -62.41735534822558 124.6304181860318
249 -103.4789377514625 56.56736693961395 102.9526878677218
250 -106.949548844739 -45.87901725208366 119.7722297960137
251 -15.27199843275451 17.26348465668177 168.9377838467873
252 6.67084626309185 -10.97327438010492 172.8450998279972
253 -31.64942540614631 56.11037988397489 145.7922046243038
254 -24.20624410049566 -42.16642670439705 154.8638346682343
255 71.44362713955908 105.2491313537507 130.8202927729229
256 -42.99492227042248 -3.018961809761253 171.1982487467835
257 -86.49999999999994 -40.07530598179676 136.3335019173625
258 13.54366557829249 18.91522339328105 179.3450766442589
259 -56.08219162744027 -24.95754159549634 71.55339244728722
260 -45.08333333333334 -145 142.1915972526863
261 141.9804572142145 -15.42511866240271 129.3609271192756
262 16.90615298812729 55.76785808918982 158.6955264472912
263 20.03689669902487 -71.81064316336693 59.42504027493803
264 -156.4999999999999 40.62287936951262 144.1532922825614
265 6.70134010020744 -92.79865989979263 144.5848292041921
266 -11.55270888418472 -5.889194200809548 301.7396212636983
267 -24.65402664521554 22.53047803242601 244.5041932467607
268 57.75958988642048 29.58783650468547 292.3612211276333
269 33.07268292375034 -28.63188568427584 269.1234867352948
270 30.32712050317431 9.332748416295916 240.344732377145
271 -45.1117061398994 -21.76324394439112 252.541118691783
272 1.139553241552921 -12.45004653320118 235.3804741816814
273 -7.209345415730946 70.78457072819531 301.6440724826038
274 -14.46807259227706 -76.76307369211146 297.6298743785256
275 -89.64134770854929 53.48626531200082 278.6994993923928
276 97.90475656583484 -21.60330749926211 280.3027445543253
277 29.13651344092137 -33.33132399186586 233.4641617096382
278 -25.01486536651835 -14.45312572970834 232.6822228296557
279 -107.4867178970964 -55.33632665184134 264.2143907615429
280 103.4032807238465 45.07514722975182 257.347901554745
281 49.84327489628799 -99.94066940526177 271.2207202733374
282 46.12820028081924 -22.45626473060257 337.4452326508041
283 1.51233683717301 11.56071411441791 231.8533520371122
284 -49.0676605220856 115.5600126042105 265.8499202644
285 -25.90652146678871 9.105618145453647 225.8438791654052
286 25.99468981533524 -9.19909449415055 228.5561483020391
287 48.45512105273241 -16.66824934804462 240.2407136370658
288 -82.08666653277731 -9.059485427434669 312.2690484011384
289 43.65717605614537 70.6595706866199 267.9774363128731
290 -61.59181963546442 47.94469705762884 241.9347124751157
291 138.5712352519412 -44.81250172263701 251.8978435962684
292 18.88658366504334 30.89154907849369 337.9189764285205
293 -72.76637634625791 -107.231615501811 256.2047536442584
294 47.70453187047107 119.7090735554536 262.5641888373074
295 9.071630259128487 34.58059962903172 265.6697238937343
296 -8.741631752206887 -37.64402881086231 268.5113626627682
297 66.05568793339057 28.04712763374361 250.5529875838633
298 -134.1258913480689 4.861693232122799 273.2236760476872
$EndNodes
$Elements
1663
1 2 2 7 1 28 1 116
2 2 2 7 1 1 39 115
3 2 2 7 1 40 1 115
4 2 2 7 1 1 40 116
5 2 2 7 1 40 2 113
6 2 2 7 1 2 40 114
7 2 2 7 1 2 41 113
8 2 2 7 1 52 2 114
9 2 2 7 1 29 28 103
10 2 2 7 1 103 28 116
11 2 2 7 1 30 29 110
12 2 2 7 1 29 103 110
13 2 2 7 1 31 30 107
14 2 2 7 1 107 30 110
15 2 2 7 1 32 31 106
16 2 2 7 1 106 31 107
17 2 2 7 1 33 32 111
18 2 2 7 1 32 106 111
19 2 2 7 1 34 33 102
20 2 2 7 1 102 33 111
21 2 2 7 1 35 34 112
22 2 2 7 1 34 102 112
23 2 2 7 1 36 35 105
24 2 2 7 1 105 35 112
25 2 2 7 1 37 36 108
26 2 2 7 1 36 105 108
27 2 2 7 1 38 37 109
28 2 2 7 1 37 108 109
29 2 2 7 1 39 38 104
30 2 2 7 1 104 38 109
31 2 2 7 1 39 104 115
32 2 2 7 1 40 113 116
33 2 2 7 1 114 40 115
34 2 2 7 1 41 42 103
35 2 2 7 1 41 103 113
36 2 2 7 1 42 43 110
37 2 2 7 1 103 42 110
38 2 2 7 1 43 44 107
39 2 2 7 1 43 107 110
40 2 2 7 1 44 45 106
41 2 2 7 1 44 106 107
42 2 2 7 1 45 46 111
43 2 2 7 1 106 45 111
44 2 2 7 1 46 47 102
45 2 2 7 1 46 102 111
46 2 2 7 1 47 48 112
47 2 2 7 1 102 47 112
48 2 2 7 1 48 49 105
49 2 2 7 1 48 105 112
50 2 2 7 1 49 50 108
51 2 2 7 1 105 49 108
52 2 2 7 1 50 51 109
53 2 2 7 1 108 50 109
54 2 2 7 1 51 52 104
55 2 2 7 1 51 104 109
56 2 2 7 1 104 52 114
57 2 2 7 1 113 103 116
58 2 2 7 1 104 114 115
59 2 2 1 3 63 144 11
60 2 2 1 3 11 144 68
61 2 2 1 3 64 144 63
62 2 2 1 3 65 144 64
63 2 2 1 3 66 144 65
64 2 2 1 3 67 144 66
65 2 2 1 3 68 144 67
66 2 2 2 4 69 145 12
67 2 2 2 4 12 145 74
68 2 2 2 4 70 145 69
69 2 2 2 4 71 145 70
70 2 2 2 4 72 145 71
71 2 2 2 4 73 145 72
72 2 2 2 4 74 145 73
73 2 2 3 5 58 146 7
74 2 2 3 5 7 148 62
75 2 2 3 5 146 148 7
76 2 2 3 5 8 147 58
77 2 2 3 5 59 147 8
78 2 2 3 5 9 147 59
79 2 2 3 5 60 147 9
80 2 2 3 5 10 146 60
81 2 2 3 5 61 148 10
82 2 2 3 5 10 148 146
83 2 2 3 5 60 146 58
84 2 2 3 5 58 147 60
85 2 2 3 5 62 148 61
86 2 2 4 6 14 75 13
87 2 2 4 6 14 13 149
88 2 2 4 6 13 76 149
89 2 2 4 6 78 14 149
90 2 2 4 6 76 15 150
91 2 2 4 6 15 77 150
92 2 2 4 6 77 16 150
93 2 2 4 6 16 78 150
94 2 2 4 6 76 78 149
95 2 2 4 6 78 76 150
96 2 2 5 7 53 151 3
97 2 2 5 7 3 152 57
98 2 2 5 7 151 152 3
99 2 2 5 7 4 153 53
100 2 2 5 7 54 153 4
101 2 2 5 7 5 153 54
102 2 2 5 7 55 153 5
103 2 2 5 7 6 151 55
104 2 2 5 7 56 152 6
105 2 2 5 7 6 152 151
106 2 2 5 7 53 153 151
107 2 2 5 7 151 153 55
108 2 2 5 7 57 152 56
109 2 2 6 8 79 17 154
110 2 2 6 8 17 80 154
111 2 2 6 8 18 79 154
112 2 2 6 8 82 18 154
113 2 2 6 8 80 19 155
114 2 2 6 8 19 81 155
115 2 2 6 8 81 20 155
116 2 2 6 8 20 82 155
117 2 2 6 8 154 80 155
118 2 2 6 8 82 154 155
119 2 2 8 9 41 2 159
120 2 2 8 9 2 52 166
121 2 2 8 9 159 2 166
122 2 2 8 9 42 41 170
123 2 2 8 9 41 159 170
124 2 2 8 9 43 42 161
125 2 2 8 9 161 42 170
126 2 2 8 9 44 43 156
127 2 2 8 9 156 43 161
128 2 2 8 9 45 44 167
129 2 2 8 9 44 156 167
130 2 2 8 9 46 45 160
131 2 2 8 9 160 45 167
132 2 2 8 9 47 46 171
133 2 2 8 9 46 160 171
134 2 2 8 9 48 47 158
135 2 2 8 9 158 47 171
136 2 2 8 9 49 48 168
137 2 2 8 9 48 158 168
138 2 2 8 9 50 49 169
139 2 2 8 9 49 168 169
140 2 2 8 9 51 50 157
141 2 2 8 9 157 50 169
142 2 2 8 9 52 51 166
143 2 2 8 9 51 157 166
144 2 2 8 9 160 156 164
145 2 2 8 9 156 160 167
146 2 2 8 9 156 161 162
147 2 2 8 9 156 162 164
148 2 2 8 9 163 157 165
149 2 2 8 9 157 163 166
150 2 2 8 9 165 157 169
151 2 2 8 9 158 160 164
152 2 2 8 9 160 158 171
153 2 2 8 9 158 164 165
154 2 2 8 9 158 165 168
155 2 2 8 9 162 159 163
156 2 2 8 9 159 162 170
157 2 2 8 9 163 159 166
158 2 2 8 9 162 161 170
159 2 2 8 9 162 163 164
160 2 2 8 9 164 163 165
161 2 2 8 9 168 165 169
162 2 2 11 10 28 202 1
163 2 2 11 10 1 203 39
164 2 2 11 10 1 202 83
165 2 2 11 10 83 203 1
166 2 2 11 10 85 172 21
167 2 2 11 10 21 174 85
168 2 2 11 10 172 185 21
169 2 2 11 10 21 194 174
170 2 2 11 10 185 194 21
171 2 2 11 10 29 178 28
172 2 2 11 10 178 202 28
173 2 2 11 10 30 180 29
174 2 2 11 10 29 180 178
175 2 2 11 10 31 176 30
176 2 2 11 10 176 180 30
177 2 2 11 10 32 182 31
178 2 2 11 10 31 182 176
179 2 2 11 10 33 175 32
180 2 2 11 10 175 182 32
181 2 2 11 10 34 188 33
182 2 2 11 10 33 188 175
183 2 2 11 10 35 173 34
184 2 2 11 10 173 188 34
185 2 2 11 10 36 201 35
186 2 2 11 10 35 201 173
187 2 2 11 10 37 177 36
188 2 2 11 10 177 201 36
189 2 2 11 10 38 181 37
190 2 2 11 10 37 181 177
191 2 2 11 10 39 179 38
192 2 2 11 10 179 181 38
193 2 2 11 10 39 203 179
194 2 2 11 10 83 196 84
195 2 2 11 10 84 197 83
196 2 2 11 10 83 202 196
197 2 2 11 10 197 203 83
198 2 2 11 10 84 191 85
199 2 2 11 10 85 192 84
200 2 2 11 10 84 196 191
201 2 2 11 10 192 197 84
202 2 2 11 10 85 191 172
203 2 2 11 10 174 192 85
204 2 2 11 10 172 195 185
205 2 2 11 10 190 195 172
206 2 2 11 10 172 199 190
207 2 2 11 10 191 199 172
208 2 2 11 10 173 186 184
209 2 2 11 10 184 188 173
210 2 2 11 10 173 187 186
211 2 2 11 10 173 201 187
212 2 2 11 10 189 193 174
213 2 2 11 10 174 194 189
214 2 2 11 10 174 193 192
215 2 2 11 10 175 183 182
216 2 2 11 10 175 184 183
217 2 2 11 10 175 188 184
218 2 2 11 10 176 190 180
219 2 2 11 10 182 198 176
220 2 2 11 10 176 198 190
221 2 2 11 10 181 200 177
222 2 2 11 10 177 189 187
223 2 2 11 10 187 201 177
224 2 2 11 10 177 200 189
225 2 2 11 10 180 199 178
226 2 2 11 10 178 199 196
227 2 2 11 10 196 202 178
228 2 2 11 10 179 193 181
229 2 2 11 10 179 197 193
230 2 2 11 10 179 203 197
231 2 2 11 10 190 199 180
232 2 2 11 10 193 200 181
233 2 2 11 10 183 198 182
234 2 2 11 10 184 185 183
235 2 2 11 10 185 195 183
236 2 2 11 10 195 198 183
237 2 2 11 10 184 186 185
238 2 2 11 10 186 194 185
239 2 2 11 10 187 189 186
240 2 2 11 10 189 194 186
241 2 2 11 10 189 200 193
242 2 2 11 10 190 198 195
243 2 2 11 10 196 199 191
244 2 2 11 10 193 197 192
245 2 2 5 11 53 3 204
246 2 2 5 11 3 89 204
247 2 2 5 11 4 53 205
248 2 2 5 11 87 4 205
249 2 2 5 11 55 5 205
250 2 2 5 11 5 86 205
251 2 2 5 11 6 55 206
252 2 2 5 11 88 6 206
253 2 2 5 11 22 88 206
254 2 2 5 11 89 22 204
255 2 2 5 11 204 22 206
256 2 2 5 11 53 204 207
257 2 2 5 11 205 53 207
258 2 2 5 11 55 205 207
259 2 2 5 11 206 55 207
260 2 2 5 11 86 87 205
261 2 2 5 11 204 206 207
262 2 2 5 12 87 54 4
263 2 2 5 12 54 86 5
264 2 2 5 12 54 87 86
265 2 2 5 13 57 89 3
266 2 2 5 13 88 56 6
267 2 2 5 13 88 22 208
268 2 2 5 13 22 89 209
269 2 2 5 13 208 22 209
270 2 2 5 13 57 56 208
271 2 2 5 13 56 88 208
272 2 2 5 13 89 57 209
273 2 2 5 13 57 208 209
274 2 2 3 14 58 7 210
275 2 2 3 14 7 93 210
276 2 2 3 14 8 58 211
277 2 2 3 14 91 8 211
278 2 2 3 14 60 9 211
279 2 2 3 14 9 90 211
280 2 2 3 14 10 60 212
281 2 2 3 14 92 10 212
282 2 2 3 14 23 92 212
283 2 2 3 14 93 23 210
284 2 2 3 14 210 23 212
285 2 2 3 14 58 60 211
286 2 2 3 14 60 58 213
287 2 2 3 14 58 210 213
288 2 2 3 14 212 60 213
289 2 2 3 14 90 91 211
290 2 2 3 14 210 212 213
291 2 2 3 15 91 59 8
292 2 2 3 15 59 90 9
293 2 2 3 15 59 91 90
294 2 2 3 16 62 93 7
295 2 2 3 16 10 92 61
296 2 2 3 16 92 23 215
297 2 2 3 16 23 93 214
298 2 2 3 16 23 214 215
299 2 2 3 16 62 61 214
300 2 2 3 16 61 92 215
301 2 2 3 16 214 61 215
302 2 2 3 16 93 62 214
303 2 2 1 17 94 63 11
304 2 2 1 17 68 94 11
305 2 2 1 17 94 24 216
306 2 2 1 17 24 94 218
307 2 2 1 17 216 24 219
308 2 2 1 17 24 217 219
309 2 2 1 17 217 24 220
310 2 2 1 17 24 218 220
311 2 2 1 17 64 63 216
312 2 2 1 17 63 94 216
313 2 2 1 17 65 64 219
314 2 2 1 17 64 216 219
315 2 2 1 17 66 65 217
316 2 2 1 17 217 65 219
317 2 2 1 17 67 66 220
318 2 2 1 17 66 217 220
319 2 2 1 17 68 67 218
320 2 2 1 17 218 67 220
321 2 2 1 17 94 68 218
322 2 2 2 18 12 95 69
323 2 2 2 18 74 95 12
324 2 2 2 18 95 25 221
325 2 2 2 18 25 95 223
326 2 2 2 18 221 25 224
327 2 2 2 18 25 222 224
328 2 2 2 18 222 25 225
329 2 2 2 18 25 223 225
330 2 2 2 18 70 69 221
331 2 2 2 18 69 95 221
332 2 2 2 18 71 70 224
333 2 2 2 18 70 221 224
334 2 2 2 18 72 71 222
335 2 2 2 18 222 71 224
336 2 2 2 18 73 72 225
337 2 2 2 18 72 222 225
338 2 2 2 18 74 73 223
339 2 2 2 18 223 73 225
340 2 2 2 18 95 74 223
341 2 2 4 19 75 227 13
342 2 2 4 19 13 227 97
343 2 2 4 19 75 14 96
344 2 2 4 19 26 226 96
345 2 2 4 19 97 226 26
346 2 2 4 19 96 226 75
347 2 2 4 19 226 227 75
348 2 2 4 19 97 227 226
349 2 2 4 20 13 228 76
350 2 2 4 20 97 228 13
351 2 2 4 20 78 232 14
352 2 2 4 20 14 231 96
353 2 2 4 20 14 232 231
354 2 2 4 20 76 233 15
355 2 2 4 20 15 233 98
356 2 2 4 20 16 229 78
357 2 2 4 20 98 229 16
358 2 2 4 20 96 231 26
359 2 2 4 20 26 228 97
360 2 2 4 20 26 231 228
361 2 2 4 20 228 232 76
362 2 2 4 20 76 232 230
363 2 2 4 20 230 234 76
364 2 2 4 20 76 234 233
365 2 2 4 20 229 234 78
366 2 2 4 20 230 232 78
367 2 2 4 20 78 234 230
368 2 2 4 20 98 233 229
369 2 2 4 20 231 232 228
370 2 2 4 20 233 234 229
371 2 2 4 21 77 15 98
372 2 2 4 21 98 16 77
373 2 2 6 22 79 236 17
374 2 2 6 22 17 236 100
375 2 2 6 22 99 79 18
376 2 2 6 22 27 235 99
377 2 2 6 22 100 235 27
378 2 2 6 22 99 235 79
379 2 2 6 22 235 236 79
380 2 2 6 22 100 236 235
381 2 2 6 23 17 238 80
382 2 2 6 23 100 238 17
383 2 2 6 23 82 237 18
384 2 2 6 23 18 237 99
385 2 2 6 23 80 240 19
386 2 2 6 23 19 240 101
387 2 2 6 23 20 241 82
388 2 2 6 23 101 241 20
389 2 2 6 23 99 237 27
390 2 2 6 23 27 238 100
391 2 2 6 23 237 238 27
392 2 2 6 23 238 239 80
393 2 2 6 23 239 240 80
394 2 2 6 23 82 239 237
395 2 2 6 23 82 241 239
396 2 2 6 23 101 240 239
397 2 2 6 23 239 241 101
398 2 2 6 23 237 239 238
399 2 2 6 24 81 19 101
400 2 2 6 24 101 20 81
401 4 2 9 7 57 139 67 256
402 4 2 9 7 163 247 242 248
403 4 2 9 7 75 12 69 258
404 4 2 9 7 82 155 154 262
405 4 2 9 7 121 125 6 252
406 4 2 9 7 81 19 155 110
407 4 2 9 7 7 146 243 256
408 4 2 9 7 12 75 252 258
409 4 2 9 7 162 245 242 247
410 4 2 9 7 163 248 242 263
411 4 2 9 7 171 249 250 259
412 4 2 9 7 78 16 150 261
413 4 2 9 7 60 9 147 250
414 4 2 9 7 166 247 248 261
415 4 2 9 7 168 250 246 259
416 4 2 9 7 82 245 155 262
417 4 2 9 7 249 253 243 259
418 4 2 9 7 242 247 245 262
419 4 2 9 7 54 36 4 108
420 4 2 9 7 82 118 128 253
421 4 2 9 7 162 242 163 247
422 4 2 9 7 68 144 11 251
423 4 2 9 7 244 242 253 262
424 4 2 9 7 244 248 252 254
425 4 2 9 7 140 120 143 255
426 4 2 9 7 13 125 121 252
427 4 2 9 7 163 166 247 248
428 4 2 9 7 161 245 162 255
429 4 2 9 7 155 107 20 81
430 4 2 9 7 146 249 243 257
431 4 2 9 7 1 16 28 116
432 4 2 9 7 74 12 75 252
433 4 2 9 7 244 252 75 258
434 4 2 9 7 242 244 247 262
435 4 2 9 7 153 55 5 265
436 4 2 9 7 13 247 149 248
437 4 2 9 7 67 144 68 251
438 4 2 9 7 245 247 162 255
439 4 2 9 7 1 15 115 39
440 4 2 9 7 161 162 170 255
441 4 2 9 7 82 107 20 155
442 4 2 9 7 162 247 170 255
443 4 2 9 7 109 263 246 265
444 4 2 9 7 244 247 13 248
445 4 2 9 7 69 14 75 258
446 4 2 9 7 13 76 126 248
447 4 2 9 7 53 119 3 254
448 4 2 9 7 242 247 244 248
449 4 2 9 7 169 168 105 246
450 4 2 9 7 171 249 102 250
451 4 2 9 7 7 243 146 249
452 4 2 9 7 81 155 107 110
453 4 2 9 7 3 151 53 254
454 4 2 9 7 59 9 34 102
455 4 2 9 7 164 242 162 245
456 4 2 9 7 164 242 245 259
457 4 2 9 7 151 53 254 265
458 4 2 9 7 58 137 7 249
459 4 2 9 7 168 105 246 250
460 4 2 9 7 166 248 114 261
461 4 2 9 7 102 59 8 33
462 4 2 9 7 82 128 245 253
463 4 2 9 7 107 155 82 245
464 4 2 9 7 108 169 246 263
465 4 2 9 7 75 244 13 252
466 4 2 9 7 58 249 146 257
467 4 2 9 7 145 69 12 258
468 4 2 9 7 118 249 128 253
469 4 2 9 7 128 249 245 253
470 4 2 9 7 108 260 5 265
471 4 2 9 7 153 5 260 265
472 4 2 9 7 243 244 242 253
473 4 2 9 7 159 247 166 261
474 4 2 9 7 246 242 254 265
475 4 2 9 7 166 104 248 263
476 4 2 9 7 59 147 9 264
477 4 2 9 7 244 242 248 254
478 4 2 9 7 149 248 247 261
479 4 2 9 7 245 255 155 262
480 4 2 9 7 13 149 76 248
481 4 2 9 7 245 253 249 259
482 4 2 9 7 107 155 245 255
483 4 2 9 7 136 253 135 256
484 4 2 9 7 13 244 248 252
485 4 2 9 7 164 245 249 259
486 4 2 9 7 159 163 166 247
487 4 2 9 7 5 133 109 265
488 4 2 9 7 146 243 256 257
489 4 2 9 7 171 160 249 259
490 4 2 9 7 6 254 252 265
491 4 2 9 7 144 63 11 251
492 4 2 9 7 158 250 168 259
493 4 2 9 7 60 132 9 250
494 4 2 9 7 135 253 251 256
495 4 2 9 7 16 77 150 261
496 4 2 9 7 160 245 167 249
497 4 2 9 7 127 133 117 248
498 4 2 9 7 5 55 133 265
499 4 2 9 7 145 12 252 258
500 4 2 9 7 149 76 248 261
501 4 2 9 7 109 248 104 263
502 4 2 9 7 246 254 53 265
503 4 2 9 7 169 109 157 263
504 4 2 9 7 166 248 163 263
505 4 2 9 7 106 167 245 249
506 4 2 9 7 14 244 75 258
507 4 2 9 7 7 146 58 249
508 4 2 9 7 171 250 158 259
509 4 2 9 7 114 248 104 261
510 4 2 9 7 158 112 168 250
511 4 2 9 7 14 78 149 247
512 4 2 9 7 13 248 125 252
513 4 2 9 7 166 157 104 263
514 4 2 9 7 155 110 19 255
515 4 2 9 7 82 20 107 128
516 4 2 9 7 169 165 168 246
517 4 2 9 7 110 245 161 255
518 4 2 9 7 123 258 251 262
519 4 2 9 7 3 254 119 257
520 4 2 9 7 112 158 171 250
521 4 2 9 7 75 14 13 244
522 4 2 9 7 110 161 170 255
523 4 2 9 7 66 144 67 256
524 4 2 9 7 133 248 109 265
525 4 2 9 7 74 145 12 252
526 4 2 9 7 245 253 242 262
527 4 2 9 7 107 82 128 245
528 4 2 9 7 103 170 247 255
529 4 2 9 7 117 248 133 265
530 4 2 9 7 109 248 263 265
531 4 2 9 7 18 123 135 251
532 4 2 9 7 165 168 246 259
533 4 2 9 7 162 163 159 247
534 4 2 9 7 109 104 157 263
535 4 2 9 7 246 257 250 260
536 4 2 9 7 133 127 104 248
537 4 2 9 7 156 107 167 245
538 4 2 9 7 113 247 159 261
539 4 2 9 7 29 19 30 110
540 4 2 9 7 156 161 107 245
541 4 2 9 7 159 113 170 247
542 4 2 9 7 102 250 249 264
543 4 2 9 7 14 247 244 262
544 4 2 9 7 167 107 106 245
545 4 2 9 7 109 246 108 265
546 4 2 9 7 108 54 36 37
547 4 2 9 7 160 164 245 249
548 4 2 9 7 247 255 245 262
549 4 2 9 7 80 155 19 255
550 4 2 9 7 168 112 105 250
551 4 2 9 7 108 109 169 263
552 4 2 9 7 82 253 245 262
553 4 2 9 7 139 66 67 256
554 4 2 9 7 248 254 242 265
555 4 2 9 7 250 257 119 260
556 4 2 9 7 105 119 130 260
557 4 2 9 7 252 254 248 265
558 4 2 9 7 110 107 161 245
559 4 2 9 7 74 75 13 252
560 4 2 9 7 140 143 103 255
561 4 2 9 7 112 171 102 250
562 4 2 9 7 162 159 170 247
563 4 2 9 7 118 138 128 249
564 4 2 9 7 78 134 140 247
565 4 2 9 7 40 159 114 261
566 4 2 9 7 156 167 160 245
567 4 2 9 7 14 134 78 247
568 4 2 9 7 242 254 243 259
569 4 2 9 7 102 171 111 249
570 4 2 9 7 171 160 111 249
571 4 2 9 7 128 106 245 249
572 4 2 9 7 78 247 140 261
573 4 2 9 7 137 138 118 249
574 4 2 9 7 105 108 169 246
575 4 2 9 7 242 246 254 259
576 4 2 9 7 63 144 64 251
577 4 2 9 7 57 67 56 254
578 4 2 9 7 60 58 146 257
579 4 2 9 7 140 247 116 261
580 4 2 9 7 66 65 144 256
581 4 2 9 7 246 260 108 265
582 4 2 9 7 166 104 114 248
583 4 2 9 7 61 139 57 256
584 4 2 9 7 108 246 109 263
585 4 2 9 7 9 132 102 250
586 4 2 9 7 105 250 119 260
587 4 2 9 7 109 108 5 265
588 4 2 9 7 147 60 250 264
589 4 2 9 7 159 166 114 261
590 4 2 9 7 169 165 246 263
591 4 2 9 7 153 5 54 260
592 4 2 9 7 141 127 76 261
593 4 2 9 7 123 64 135 251
594 4 2 9 7 168 105 49 169
595 4 2 9 7 56 67 68 252
596 4 2 9 7 77 15 150 261
597 4 2 9 7 160 164 249 259
598 4 2 9 7 30 20 31 107
599 4 2 9 7 170 113 103 247
600 4 2 9 7 57 67 254 256
601 4 2 9 7 127 141 104 261
602 4 2 9 7 161 156 162 245
603 4 2 9 7 107 110 155 255
604 4 2 9 7 111 160 167 249
605 4 2 9 7 242 244 243 254
606 4 2 9 7 140 103 247 255
607 4 2 9 7 242 246 263 265
608 4 2 9 7 249 243 257 259
609 4 2 9 7 128 138 106 249
610 4 2 9 7 121 74 13 252
611 4 2 9 7 136 135 7 256
612 4 2 9 7 113 159 40 261
613 4 2 9 7 251 252 67 256
614 4 2 9 7 111 167 106 249
615 4 2 9 7 105 246 250 260
616 4 2 9 7 140 103 116 247
617 4 2 9 7 15 76 150 261
618 4 2 9 7 132 119 35 250
619 4 2 9 7 67 252 56 254
620 4 2 9 7 162 164 163 242
621 4 2 9 7 252 254 67 256
622 4 2 9 7 14 17 134 247
623 4 2 9 7 78 149 247 261
624 4 2 9 7 160 164 156 245
625 4 2 9 7 14 17 247 262
626 4 2 9 7 127 104 248 261
627 4 2 9 7 6 125 117 265
628 4 2 9 7 133 104 109 248
629 4 2 9 7 244 258 14 262
630 4 2 9 7 19 142 80 255
631 4 2 9 7 158 48 168 112
632 4 2 9 7 13 126 125 248
633 4 2 9 7 16 40 77 261
634 4 2 9 7 128 106 107 245
635 4 2 9 7 134 247 17 255
636 4 2 9 7 81 30 19 110
637 4 2 9 7 120 134 17 255
638 4 2 9 7 17 255 247 262
639 4 2 9 7 242 263 248 265
640 4 2 9 7 103 110 170 255
641 4 2 9 7 78 140 16 261
642 4 2 9 7 158 112 171 47
643 4 2 9 7 164 162 156 245
644 4 2 9 7 169 157 109 50
645 4 2 9 7 157 166 104 51
646 4 2 9 7 32 249 138 264
647 4 2 9 7 19 110 142 255
648 4 2 9 7 164 242 259 263
649 4 2 9 7 67 251 68 252
650 4 2 9 7 105 35 130 119
651 4 2 9 7 144 251 67 256
652 4 2 9 7 167 156 44 107
653 4 2 9 7 55 117 133 265
654 4 2 9 7 43 107 156 161
655 4 2 9 7 105 35 119 250
656 4 2 9 7 34 9 132 112
657 4 2 9 7 111 102 249 264
658 4 2 9 7 58 249 257 264
659 4 2 9 7 146 256 10 257
660 4 2 9 7 115 104 141 261
661 4 2 9 7 123 63 64 251
662 4 2 9 7 152 57 56 254
663 4 2 9 7 254 256 243 257
664 4 2 9 7 53 260 246 265
665 4 2 9 7 114 2 159 40
666 4 2 9 7 18 251 135 253
667 4 2 9 7 165 158 168 259
668 4 2 9 7 68 124 56 252
669 4 2 9 7 104 109 157 51
670 4 2 9 7 10 129 60 257
671 4 2 9 7 6 152 56 254
672 4 2 9 7 6 56 252 254
673 4 2 9 7 102 132 9 112
674 4 2 9 7 60 58 257 264
675 4 2 9 7 16 140 116 261
676 4 2 9 7 106 167 44 107
677 4 2 9 7 167 160 111 45
678 4 2 9 7 14 69 79 258
679 4 2 9 7 244 243 251 253
680 4 2 9 7 147 58 60 264
681 4 2 9 7 243 254 257 259
682 4 2 9 7 164 163 242 263
683 4 2 9 7 78 76 149 261
684 4 2 9 7 125 248 117 265
685 4 2 9 7 121 6 56 252
686 4 2 9 7 117 126 127 248
687 4 2 9 7 106 138 32 249
688 4 2 9 7 58 138 137 264
689 4 2 9 7 151 254 152 265
690 4 2 9 7 123 251 18 262
691 4 2 9 7 42 110 161 170
692 4 2 9 7 48 105 168 112
693 4 2 9 7 80 17 154 262
694 4 2 9 7 5 108 54 260
695 4 2 9 7 70 145 71 258
696 4 2 9 7 43 110 107 161
697 4 2 9 7 244 251 258 262
698 4 2 9 7 171 158 160 259
699 4 2 9 7 251 253 243 256
700 4 2 9 7 117 125 126 248
701 4 2 9 7 249 257 250 259
702 4 2 9 7 167 111 106 45
703 4 2 9 7 6 152 254 265
704 4 2 9 7 171 112 102 47
705 4 2 9 7 60 146 10 257
706 4 2 9 7 132 35 112 250
707 4 2 9 7 171 46 111 160
708 4 2 9 7 116 247 113 261
709 4 2 9 7 102 132 112 250
710 4 2 9 7 18 118 82 253
711 4 2 9 7 38 133 127 104
712 4 2 9 7 107 245 110 255
713 4 2 9 7 105 108 49 169
714 4 2 9 7 109 108 169 50
715 4 2 9 7 246 259 242 263
716 4 2 9 7 146 148 10 256
717 4 2 9 7 151 3 152 254
718 4 2 9 7 7 148 146 256
719 4 2 9 7 246 257 254 259
720 4 2 9 7 10 256 254 257
721 4 2 9 7 80 255 17 262
722 4 2 9 7 68 72 124 252
723 4 2 9 7 128 32 106 138
724 4 2 9 7 102 171 46 111
725 4 2 9 7 60 257 250 264
726 4 2 9 7 72 145 73 252
727 4 2 9 7 61 66 139 256
728 4 2 9 7 53 151 153 265
729 4 2 9 7 166 2 159 114
730 4 2 9 7 80 120 17 255
731 4 2 9 7 251 254 252 256
732 4 2 9 7 130 119 53 260
733 4 2 9 7 165 259 246 263
734 4 2 9 7 108 246 105 260
735 4 2 9 7 250 257 249 264
736 4 2 9 7 129 3 119 257
737 4 2 9 7 69 145 70 258
738 4 2 9 7 6 151 152 265
739 4 2 9 7 138 249 137 264
740 4 2 9 7 40 1 16 77
741 4 2 9 7 105 112 35 250
742 4 2 9 7 244 253 251 262
743 4 2 9 7 58 137 249 264
744 4 2 9 7 19 29 142 110
745 4 2 9 7 73 56 124 252
746 4 2 9 7 113 159 2 40
747 4 2 9 7 142 103 143 255
748 4 2 9 7 54 108 4 260
749 4 2 9 7 81 107 30 110
750 4 2 9 7 20 31 107 128
751 4 2 9 7 59 9 102 264
752 4 2 9 7 129 119 60 257
753 4 2 9 7 18 135 136 253
754 4 2 9 7 121 73 74 252
755 4 2 9 7 153 151 55 265
756 4 2 9 7 120 142 143 255
757 4 2 9 7 164 259 165 263
758 4 2 9 7 127 141 39 104
759 4 2 9 7 37 109 5 133
760 4 2 9 7 110 42 103 170
761 4 2 9 7 145 74 73 252
762 4 2 9 7 121 56 73 252
763 4 2 9 7 124 72 73 252
764 4 2 9 7 111 249 32 264
765 4 2 9 7 53 153 260 265
766 4 2 9 7 9 34 102 112
767 4 2 9 7 70 71 122 258
768 4 2 9 7 142 110 29 255
769 4 2 9 7 109 133 38 104
770 4 2 9 7 116 103 113 247
771 4 2 9 7 30 20 107 81
772 4 2 9 7 119 132 60 257
773 4 2 9 7 132 250 60 257
774 4 2 9 7 119 250 132 257
775 4 2 9 7 59 8 147 264
776 4 2 9 7 15 141 76 261
777 4 2 9 7 111 106 32 249
778 4 2 9 7 243 254 251 256
779 4 2 9 7 115 39 141 104
780 4 2 9 7 79 258 123 262
781 4 2 9 7 112 158 48 47
782 4 2 9 7 5 54 108 37
783 4 2 9 7 107 31 106 128
784 4 2 9 7 18 251 253 262
785 4 2 9 7 164 165 163 263
786 4 2 9 7 109 5 108 37
787 4 2 9 7 118 18 136 253
788 4 2 9 7 40 16 116 261
789 4 2 9 7 14 258 79 262
790 4 2 9 7 156 44 107 43
791 4 2 9 7 166 163 157 263
792 4 2 9 7 131 32 138 264
793 4 2 9 7 8 58 147 264
794 4 2 9 7 76 78 150 261
795 4 2 9 7 10 57 254 256
796 4 2 9 7 113 170 103 41
797 4 2 9 7 116 113 40 261
798 4 2 9 7 114 104 115 261
799 4 2 9 7 113 159 170 41
800 4 2 9 7 130 35 105 36
801 4 2 9 7 160 158 164 259
802 4 2 9 7 166 52 114 104
803 4 2 9 7 102 171 47 46
804 4 2 9 7 169 157 165 263
805 4 2 9 7 108 49 169 50
806 4 2 9 7 36 108 105 260
807 4 2 9 7 105 130 36 260
808 4 2 9 7 65 66 62 256
809 4 2 9 7 131 33 32 264
810 4 2 9 7 34 132 35 112
811 4 2 9 7 46 111 160 45
812 4 2 9 7 143 142 29 103
813 4 2 9 7 15 115 141 261
814 4 2 9 7 170 42 103 41
815 4 2 9 7 133 37 109 38
816 4 2 9 7 152 3 57 254
817 4 2 9 7 106 44 167 45
818 4 2 9 7 80 142 120 255
819 4 2 9 7 6 55 151 265
820 4 2 9 7 166 52 104 51
821 4 2 9 7 59 102 8 264
822 4 2 9 7 117 55 6 265
823 4 2 9 7 36 4 108 260
824 4 2 9 7 165 164 158 259
825 4 2 9 7 111 33 102 264
826 4 2 9 7 31 32 106 128
827 4 2 9 7 250 257 246 259
828 4 2 9 7 48 105 49 168
829 4 2 9 7 143 29 28 103
830 4 2 9 7 157 109 50 51
831 4 2 9 7 103 142 29 255
832 4 2 9 7 32 33 111 264
833 4 2 9 7 153 4 53 260
834 4 2 9 7 10 57 3 254
835 4 2 9 7 116 1 16 40
836 4 2 9 7 113 2 159 41
837 4 2 9 7 42 110 43 161
838 4 2 9 7 153 54 4 260
839 4 2 9 7 61 62 66 256
840 4 2 9 7 135 62 7 256
841 4 2 9 7 131 138 58 264
842 4 2 9 7 103 29 110 255
843 4 2 9 7 163 165 157 263
844 4 2 9 7 52 2 166 114
845 4 2 9 7 38 127 39 104
846 4 2 9 7 123 79 122 258
847 4 2 9 7 53 4 130 260
848 4 2 9 7 102 33 8 264
849 4 2 9 7 79 123 18 262
850 4 2 9 7 116 16 28 140
851 4 2 9 7 10 61 57 256
852 4 2 9 7 15 115 39 141
853 4 2 9 7 154 17 79 262
854 4 2 9 7 79 18 154 262
855 4 2 9 7 8 131 58 264
856 4 2 9 7 148 62 61 256
857 4 2 9 7 17 14 79 262
858 4 2 9 7 115 40 114 261
859 4 2 9 7 70 79 69 258
860 4 2 9 7 70 122 79 258
861 4 2 9 7 4 36 130 260
862 4 2 9 7 251 252 244 258
863 4 2 9 7 10 148 61 256
864 4 2 9 7 7 62 148 256
865 4 2 9 7 8 33 131 264
866 4 2 9 7 34 59 102 33
867 4 2 9 7 13 247 14 149
868 4 2 9 7 14 247 13 244
869 4 2 9 7 259 253 242 245
870 4 2 9 7 259 242 253 243
871 4 2 9 7 262 80 155 154
872 4 2 9 7 262 155 80 255
873 4 2 9 7 76 248 127 126
874 4 2 9 7 127 248 76 261
875 4 2 9 7 260 257 53 246
876 4 2 9 7 260 53 257 119
877 4 2 9 7 254 53 257 246
878 4 2 9 7 254 257 53 119
879 4 2 9 7 264 9 250 147
880 4 2 9 7 264 250 9 102
881 4 2 9 7 262 82 18 154
882 4 2 9 7 262 18 82 253
883 4 2 9 7 265 125 252 6
884 4 2 9 7 265 252 125 248
885 4 2 9 7 255 134 140 120
886 4 2 9 7 255 140 134 247
887 4 2 9 7 103 140 28 143
888 4 2 9 7 103 28 140 116
889 4 2 9 7 256 136 243 7
890 4 2 9 7 256 243 136 253
891 4 2 9 7 254 251 244 243
892 4 2 9 7 254 244 251 252
893 4 2 9 7 257 3 10 129
894 4 2 9 7 257 10 3 254
895 4 2 9 7 1 15 40 115
896 4 2 9 7 1 40 15 77
897 4 2 9 7 261 40 15 115
898 4 2 9 7 261 15 40 77
899 4 2 9 7 253 136 249 243
900 4 2 9 7 7 136 249 137
901 4 2 9 7 7 249 136 243
902 4 2 9 7 62 251 135 64
903 4 2 9 7 135 251 62 256
904 4 2 9 7 65 144 251 64
905 4 2 9 7 251 144 65 256
906 4 2 9 7 62 65 251 64
907 4 2 9 7 251 65 62 256
908 4 2 9 7 11 71 251 63
909 4 2 9 7 122 123 251 63
910 4 2 9 7 251 123 122 258
911 4 2 9 7 71 122 251 63
912 4 2 9 7 251 122 71 258
913 4 2 9 7 72 11 252 68
914 4 2 9 7 251 252 11 68
915 4 2 9 7 136 249 118 253
916 4 2 9 7 136 118 249 137
917 4 2 9 7 71 251 252 11
918 4 2 9 7 252 251 71 258
919 4 2 9 7 252 72 71 11
920 4 2 9 7 71 252 145 72
921 4 2 9 7 145 252 71 258
922 4 2 10 8 266 273 267 275
923 4 2 10 8 273 288 266 292
924 4 2 10 8 83 229 234 280
925 4 2 10 8 223 225 73 121
926 4 2 10 8 213 271 210 290
927 4 2 10 8 36 54 87 37
928 4 2 10 8 205 207 274 281
929 4 2 10 8 234 230 276 280
930 4 2 10 8 277 281 126 287
931 4 2 10 8 225 223 208 121
932 4 2 10 8 1 28 16 202
933 4 2 10 8 267 273 266 295
934 4 2 10 8 269 281 277 287
935 4 2 10 8 15 1 203 39
936 4 2 10 8 213 275 271 290
937 4 2 10 8 99 273 267 295
938 4 2 10 8 89 204 22 271
939 4 2 10 8 237 99 273 290
940 4 2 10 8 83 234 276 280
941 4 2 10 8 67 218 220 209
942 4 2 10 8 267 273 99 290
943 4 2 10 8 237 273 99 295
944 4 2 10 8 271 275 267 290
945 4 2 10 8 97 277 125 287
946 4 2 10 8 223 25 225 286
947 4 2 10 8 86 133 205 281
948 4 2 10 8 84 276 268 280
949 4 2 10 8 267 275 273 290
950 4 2 10 8 273 275 266 288
951 4 2 10 8 199 289 268 292
952 4 2 10 8 125 117 126 277
953 4 2 10 8 92 129 89 271
954 4 2 10 8 126 281 276 287
955 4 2 10 8 230 276 232 291
956 4 2 10 8 204 271 89 293
957 4 2 10 8 100 120 238 289
958 4 2 10 8 190 273 289 292
959 4 2 10 8 267 271 266 288
960 4 2 10 8 268 276 84 282
961 4 2 10 8 225 208 218 124
962 4 2 10 8 86 87 54 37
963 4 2 10 8 83 276 234 291
964 4 2 10 8 224 216 123 122
965 4 2 10 8 181 177 86 37
966 4 2 10 8 267 266 275 288
967 4 2 10 8 117 277 88 281
968 4 2 10 8 25 95 221 286
969 4 2 10 8 84 268 191 280
970 4 2 10 8 276 281 269 287
971 4 2 10 8 194 274 266 282
972 4 2 10 8 98 83 1 202
973 4 2 10 8 269 281 276 282
974 4 2 10 8 126 276 281 291
975 4 2 10 8 125 97 227 277
976 4 2 10 8 237 239 273 294
977 4 2 10 8 199 280 268 289
978 4 2 10 8 117 126 277 281
979 4 2 10 8 1 83 98 203
980 4 2 10 8 23 93 267 285
981 4 2 10 8 176 20 30 101
982 4 2 10 8 268 269 266 295
983 4 2 10 8 21 282 266 292
984 4 2 10 8 194 266 21 282
985 4 2 10 8 239 237 273 284
986 4 2 10 8 93 135 136 267
987 4 2 10 8 207 205 55 281
988 4 2 10 8 30 19 29 180
989 4 2 10 8 84 191 268 282
990 4 2 10 8 20 30 31 176
991 4 2 10 8 266 274 194 288
992 4 2 10 8 271 275 213 288
993 4 2 10 8 271 266 288 296
994 4 2 10 8 197 281 276 291
995 4 2 10 8 135 267 93 285
996 4 2 10 8 220 61 139 215
997 4 2 10 8 280 289 100 297
998 4 2 10 8 204 22 271 296
999 4 2 10 8 210 23 267 271
1000 4 2 10 8 266 269 272 295
1001 4 2 10 8 58 275 213 290
1002 4 2 10 8 270 272 269 295
1003 4 2 10 8 237 273 289 294
1004 4 2 10 8 239 284 273 294
1005 4 2 10 8 139 57 220 215
1006 4 2 10 8 97 125 126 287
1007 4 2 10 8 178 120 142 143
1008 4 2 10 8 267 266 272 295
1009 4 2 10 8 199 191 268 280
1010 4 2 10 8 214 219 135 285
1011 4 2 10 8 100 280 120 289
1012 4 2 10 8 120 280 178 294
1013 4 2 10 8 27 289 237 295
1014 4 2 10 8 120 289 280 294
1015 4 2 10 8 216 224 123 283
1016 4 2 10 8 126 281 127 291
1017 4 2 10 8 223 208 121 277
1018 4 2 10 8 267 272 283 295
1019 4 2 10 8 211 90 132 173
1020 4 2 10 8 188 91 131 211
1021 4 2 10 8 234 276 230 291
1022 4 2 10 8 237 273 284 290
1023 4 2 10 8 266 269 274 296
1024 4 2 10 8 199 268 191 292
1025 4 2 10 8 280 289 199 294
1026 4 2 10 8 276 281 193 282
1027 4 2 10 8 100 27 235 295
1028 4 2 10 8 266 269 268 282
1029 4 2 10 8 101 239 240 294
1030 4 2 10 8 27 237 99 295
1031 4 2 10 8 120 238 289 294
1032 4 2 10 8 57 220 215 209
1033 4 2 10 8 120 178 142 294
1034 4 2 10 8 274 281 269 282
1035 4 2 10 8 223 121 227 277
1036 4 2 10 8 92 89 209 271
1037 4 2 10 8 134 280 100 297
1038 4 2 10 8 93 210 23 267
1039 4 2 10 8 190 289 273 294
1040 4 2 10 8 267 275 271 288
1041 4 2 10 8 268 282 191 292
1042 4 2 10 8 204 206 22 296
1043 4 2 10 8 267 278 272 296
1044 4 2 10 8 220 209 218 278
1045 4 2 10 8 229 83 202 280
1046 4 2 10 8 209 89 22 271
1047 4 2 10 8 23 278 215 285
1048 4 2 10 8 266 274 269 282
1049 4 2 10 8 223 277 227 286
1050 4 2 10 8 123 99 135 285
1051 4 2 10 8 178 120 143 280
1052 4 2 10 8 138 118 284 290
1053 4 2 10 8 138 284 275 290
1054 4 2 10 8 268 270 269 295
1055 4 2 10 8 270 283 272 295
1056 4 2 10 8 215 209 220 278
1057 4 2 10 8 63 216 224 122
1058 4 2 10 8 228 126 276 287
1059 4 2 10 8 99 237 118 290
1060 4 2 10 8 214 135 93 285
1061 4 2 10 8 177 205 274 281
1062 4 2 10 8 190 289 199 292
1063 4 2 10 8 125 277 126 287
1064 4 2 10 8 193 281 274 282
1065 4 2 10 8 181 133 86 281
1066 4 2 10 8 235 123 224 283
1067 4 2 10 8 134 120 100 280
1068 4 2 10 8 206 117 88 281
1069 4 2 10 8 96 221 95 270
1070 4 2 10 8 267 272 266 296
1071 4 2 10 8 237 238 239 294
1072 4 2 10 8 202 140 229 280
1073 4 2 10 8 138 182 275 284
1074 4 2 10 8 204 271 274 296
1075 4 2 10 8 87 177 205 293
1076 4 2 10 8 269 266 272 296
1077 4 2 10 8 92 209 215 278
1078 4 2 10 8 274 288 266 296
1079 4 2 10 8 205 130 87 293
1080 4 2 10 8 204 274 271 293
1081 4 2 10 8 221 96 95 69
1082 4 2 10 8 135 99 136 267
1083 4 2 10 8 230 232 276 280
1084 4 2 10 8 239 176 284 294
1085 4 2 10 8 206 281 269 296
1086 4 2 10 8 89 271 129 279
1087 4 2 10 8 237 289 273 295
1088 4 2 10 8 187 279 274 293
1089 4 2 10 8 23 214 93 285
1090 4 2 10 8 205 133 55 281
1091 4 2 10 8 185 288 273 292
1092 4 2 10 8 190 273 198 284
1093 4 2 10 8 101 176 241 239
1094 4 2 10 8 221 235 224 283
1095 4 2 10 8 96 134 236 297
1096 4 2 10 8 237 289 238 294
1097 4 2 10 8 100 295 235 297
1098 4 2 10 8 174 193 274 282
1099 4 2 10 8 271 278 23 285
1100 4 2 10 8 84 191 196 280
1101 4 2 10 8 237 284 118 290
1102 4 2 10 8 269 270 268 287
1103 4 2 10 8 135 62 219 214
1104 4 2 10 8 208 22 88 296
1105 4 2 10 8 92 212 129 271
1106 4 2 10 8 206 88 22 296
1107 4 2 10 8 267 271 23 285
1108 4 2 10 8 127 133 181 281
1109 4 2 10 8 178 143 140 280
1110 4 2 10 8 92 215 23 271
1111 4 2 10 8 197 193 276 281
1112 4 2 10 8 101 176 239 294
1113 4 2 10 8 271 288 274 296
1114 4 2 10 8 192 276 193 282
1115 4 2 10 8 177 274 200 281
1116 4 2 10 8 57 215 92 209
1117 4 2 10 8 268 287 270 297
1118 4 2 10 8 271 279 89 293
1119 4 2 10 8 193 200 274 281
1120 4 2 10 8 207 55 206 281
1121 4 2 10 8 271 213 279 288
1122 4 2 10 8 182 175 138 275
1123 4 2 10 8 234 78 230 280
1124 4 2 10 8 178 280 199 294
1125 4 2 10 8 136 99 118 290
1126 4 2 10 8 188 90 211 173
1127 4 2 10 8 197 179 281 291
1128 4 2 10 8 235 96 236 297
1129 4 2 10 8 194 174 274 282
1130 4 2 10 8 210 213 212 271
1131 4 2 10 8 267 271 278 296
1132 4 2 10 8 126 117 127 281
1133 4 2 10 8 78 14 232 134
1134 4 2 10 8 225 25 222 272
1135 4 2 10 8 275 284 273 290
1136 4 2 10 8 185 273 195 292
1137 4 2 10 8 138 131 58 275
1138 4 2 10 8 269 276 268 282
1139 4 2 10 8 58 213 275 298
1140 4 2 10 8 199 289 190 294
1141 4 2 10 8 218 225 94 272
1142 4 2 10 8 84 85 191 282
1143 4 2 10 8 209 67 218 208
1144 4 2 10 8 225 222 94 272
1145 4 2 10 8 221 224 25 283
1146 4 2 10 8 87 201 36 177
1147 4 2 10 8 142 120 238 80
1148 4 2 10 8 236 134 100 297
1149 4 2 10 8 271 279 274 288
1150 4 2 10 8 235 295 270 297
1151 4 2 10 8 127 281 179 291
1152 4 2 10 8 269 268 276 287
1153 4 2 10 8 220 218 24 278
1154 4 2 10 8 207 206 274 281
1155 4 2 10 8 24 218 94 272
1156 4 2 10 8 100 289 27 295
1157 4 2 10 8 275 213 288 298
1158 4 2 10 8 199 196 191 280
1159 4 2 10 8 120 142 238 294
1160 4 2 10 8 140 143 120 280
1161 4 2 10 8 214 23 215 285
1162 4 2 10 8 93 267 136 290
1163 4 2 10 8 268 266 292 295
1164 4 2 10 8 98 233 83 229
1165 4 2 10 8 240 19 180 142
1166 4 2 10 8 178 140 202 280
1167 4 2 10 8 210 271 267 290
1168 4 2 10 8 85 191 282 292
1169 4 2 10 8 276 287 268 297
1170 4 2 10 8 138 175 131 275
1171 4 2 10 8 125 227 121 277
1172 4 2 10 8 267 266 271 296
1173 4 2 10 8 238 142 80 294
1174 4 2 10 8 274 279 271 293
1175 4 2 10 8 24 217 220 278
1176 4 2 10 8 84 276 192 282
1177 4 2 10 8 200 177 86 181
1178 4 2 10 8 231 96 26 297
1179 4 2 10 8 135 62 214 93
1180 4 2 10 8 241 239 176 284
1181 4 2 10 8 97 126 228 287
1182 4 2 10 8 137 118 138 290
1183 4 2 10 8 57 139 61 215
1184 4 2 10 8 186 274 279 288
1185 4 2 10 8 117 133 127 281
1186 4 2 10 8 131 58 275 298
1187 4 2 10 8 99 267 135 285
1188 4 2 10 8 181 179 127 281
1189 4 2 10 8 268 266 282 292
1190 4 2 10 8 217 215 220 278
1191 4 2 10 8 240 142 180 294
1192 4 2 10 8 71 72 222 11
1193 4 2 10 8 100 235 236 297
1194 4 2 10 8 119 89 129 279
1195 4 2 10 8 82 118 237 284
1196 4 2 10 8 100 17 238 120
1197 4 2 10 8 226 96 95 270
1198 4 2 10 8 136 267 99 290
1199 4 2 10 8 187 274 177 293
1200 4 2 10 8 218 208 225 272
1201 4 2 10 8 222 25 224 283
1202 4 2 10 8 207 274 204 293
1203 4 2 10 8 82 239 241 284
1204 4 2 10 8 132 60 211 279
1205 4 2 10 8 226 223 227 286
1206 4 2 10 8 82 237 239 284
1207 4 2 10 8 138 128 182 284
1208 4 2 10 8 235 221 96 270
1209 4 2 10 8 222 224 94 283
1210 4 2 10 8 76 15 233 141
1211 4 2 10 8 96 270 26 297
1212 4 2 10 8 26 96 226 270
1213 4 2 10 8 180 142 178 294
1214 4 2 10 8 117 206 55 281
1215 4 2 10 8 206 204 207 274
1216 4 2 10 8 206 274 281 296
1217 4 2 10 8 138 118 128 284
1218 4 2 10 8 273 292 266 295
1219 4 2 10 8 269 272 270 286
1220 4 2 10 8 187 186 274 279
1221 4 2 10 8 92 271 209 278
1222 4 2 10 8 100 289 295 297
1223 4 2 10 8 196 202 83 280
1224 4 2 10 8 83 98 229 202
1225 4 2 10 8 212 271 213 279
1226 4 2 10 8 192 197 193 276
1227 4 2 10 8 5 86 37 133
1228 4 2 10 8 216 24 94 283
1229 4 2 10 8 269 281 274 296
1230 4 2 10 8 220 57 67 209
1231 4 2 10 8 94 224 216 283
1232 4 2 10 8 128 241 31 284
1233 4 2 10 8 209 271 22 296
1234 4 2 10 8 186 194 274 288
1235 4 2 10 8 20 176 241 101
1236 4 2 10 8 53 205 207 293
1237 4 2 10 8 87 201 177 293
1238 4 2 10 8 235 270 96 297
1239 4 2 10 8 131 275 175 298
1240 4 2 10 8 276 280 232 297
1241 4 2 10 8 190 198 176 284
1242 4 2 10 8 231 26 287 297
1243 4 2 10 8 88 121 208 277
1244 4 2 10 8 201 87 130 293
1245 4 2 10 8 197 179 193 281
1246 4 2 10 8 221 25 270 283
1247 4 2 10 8 216 63 123 122
1248 4 2 10 8 17 100 134 120
1249 4 2 10 8 176 31 241 284
1250 4 2 10 8 225 218 68 124
1251 4 2 10 8 236 17 100 134
1252 4 2 10 8 99 123 235 283
1253 4 2 10 8 194 21 174 282
1254 4 2 10 8 180 101 240 294
1255 4 2 10 8 196 199 178 280
1256 4 2 10 8 215 23 271 278
1257 4 2 10 8 25 272 225 286
1258 4 2 10 8 269 277 272 286
1259 4 2 10 8 27 238 237 289
1260 4 2 10 8 19 180 101 240
1261 4 2 10 8 123 224 122 79
1262 4 2 10 8 179 141 127 291
1263 4 2 10 8 270 295 268 297
1264 4 2 10 8 101 180 176 294
1265 4 2 10 8 197 276 83 291
1266 4 2 10 8 133 127 181 38
1267 4 2 10 8 188 211 131 298
1268 4 2 10 8 96 231 232 297
1269 4 2 10 8 132 211 173 279
1270 4 2 10 8 279 288 213 298
1271 4 2 10 8 240 80 142 294
1272 4 2 10 8 218 94 225 72
1273 4 2 10 8 27 99 283 295
1274 4 2 10 8 209 208 218 278
1275 4 2 10 8 18 118 136 99
1276 4 2 10 8 60 211 279 298
1277 4 2 10 8 268 280 276 297
1278 4 2 10 8 183 275 182 284
1279 4 2 10 8 214 215 217 285
1280 4 2 10 8 212 129 271 279
1281 4 2 10 8 140 120 134 280
1282 4 2 10 8 190 195 198 273
1283 4 2 10 8 53 130 205 293
1284 4 2 10 8 90 132 9 211
1285 4 2 10 8 83 233 98 203
1286 4 2 10 8 30 19 180 101
1287 4 2 10 8 34 132 90 173
1288 4 2 10 8 172 199 191 292
1289 4 2 10 8 25 221 270 286
1290 4 2 10 8 56 218 208 124
1291 4 2 10 8 197 192 84 276
1292 4 2 10 8 119 279 35 293
1293 4 2 10 8 98 1 16 202
1294 4 2 10 8 184 275 183 288
1295 4 2 10 8 204 89 119 293
1296 4 2 10 8 210 267 93 290
1297 4 2 10 8 196 178 202 280
1298 4 2 10 8 189 193 200 274
1299 4 2 10 8 85 84 192 282
1300 4 2 10 8 55 133 117 281
1301 4 2 10 8 186 288 279 298
1302 4 2 10 8 61 57 215 92
1303 4 2 10 8 35 119 132 279
1304 4 2 10 8 226 95 96 75
1305 4 2 10 8 10 60 129 212
1306 4 2 10 8 189 174 193 274
1307 4 2 10 8 90 188 34 173
1308 4 2 10 8 128 82 241 284
1309 4 2 10 8 93 136 137 290
1310 4 2 10 8 216 24 283 285
1311 4 2 10 8 98 15 1 203
1312 4 2 10 8 232 134 96 297
1313 4 2 10 8 85 282 21 292
1314 4 2 10 8 84 83 197 276
1315 4 2 10 8 267 283 99 295
1316 4 2 10 8 180 190 176 294
1317 4 2 10 8 173 279 211 298
1318 4 2 10 8 270 287 26 297
1319 4 2 10 8 175 138 32 182
1320 4 2 10 8 89 279 119 293
1321 4 2 10 8 95 270 221 286
1322 4 2 10 8 92 215 271 278
1323 4 2 10 8 190 199 172 292
1324 4 2 10 8 24 272 283 285
1325 4 2 10 8 69 96 95 75
1326 4 2 10 8 234 230 76 291
1327 4 2 10 8 31 20 176 241
1328 4 2 10 8 189 186 194 274
1329 4 2 10 8 172 21 185 292
1330 4 2 10 8 67 139 57 220
1331 4 2 10 8 218 272 24 278
1332 4 2 10 8 187 186 189 274
1333 4 2 10 8 21 85 174 282
1334 4 2 10 8 182 183 175 275
1335 4 2 10 8 56 68 218 124
1336 4 2 10 8 24 278 272 285
1337 4 2 10 8 229 98 16 202
1338 4 2 10 8 235 27 283 295
1339 4 2 10 8 225 68 218 72
1340 4 2 10 8 89 119 3 204
1341 4 2 10 8 209 278 271 296
1342 4 2 10 8 272 278 208 296
1343 4 2 10 8 224 222 94 71
1344 4 2 10 8 267 278 271 285
1345 4 2 10 8 60 213 58 298
1346 4 2 10 8 217 61 220 215
1347 4 2 10 8 37 86 181 133
1348 4 2 10 8 27 99 235 283
1349 4 2 10 8 127 179 181 38
1350 4 2 10 8 221 270 235 283
1351 4 2 10 8 235 283 270 295
1352 4 2 10 8 205 87 86 177
1353 4 2 10 8 268 289 280 297
1354 4 2 10 8 16 78 229 140
1355 4 2 10 8 39 141 179 291
1356 4 2 10 8 222 225 94 72
1357 4 2 10 8 204 274 206 296
1358 4 2 10 8 140 178 28 143
1359 4 2 10 8 172 185 195 292
1360 4 2 10 8 189 200 177 274
1361 4 2 10 8 127 76 126 291
1362 4 2 10 8 39 203 141 291
1363 4 2 10 8 238 27 100 289
1364 4 2 10 8 224 123 235 79
1365 4 2 10 8 99 18 118 237
1366 4 2 10 8 56 208 88 121
1367 4 2 10 8 96 14 236 134
1368 4 2 10 8 268 295 289 297
1369 4 2 10 8 60 279 213 298
1370 4 2 10 8 131 211 58 298
1371 4 2 10 8 187 189 177 274
1372 4 2 10 8 180 178 199 294
1373 4 2 10 8 210 212 23 271
1374 4 2 10 8 193 174 192 282
1375 4 2 10 8 194 174 189 274
1376 4 2 10 8 173 211 188 298
1377 4 2 10 8 35 130 119 293
1378 4 2 10 8 215 278 217 285
1379 4 2 10 8 138 128 32 182
1380 4 2 10 8 3 129 119 89
1381 4 2 10 8 204 53 207 293
1382 4 2 10 8 217 278 24 285
1383 4 2 10 8 67 56 218 208
1384 4 2 10 8 24 272 94 283
1385 4 2 10 8 222 272 25 283
1386 4 2 10 8 16 229 202 140
1387 4 2 10 8 226 270 95 286
1388 4 2 10 8 88 206 6 117
1389 4 2 10 8 74 227 223 121
1390 4 2 10 8 26 270 226 286
1391 4 2 10 8 138 32 131 175
1392 4 2 10 8 198 183 182 284
1393 4 2 10 8 141 39 179 127
1394 4 2 10 8 186 279 173 298
1395 4 2 10 8 76 127 141 291
1396 4 2 10 8 179 181 193 281
1397 4 2 10 8 178 29 28 143
1398 4 2 10 8 65 66 217 214
1399 4 2 10 8 35 279 173 293
1400 4 2 10 8 68 67 56 218
1401 4 2 10 8 135 18 136 99
1402 4 2 10 8 188 131 175 298
1403 4 2 10 8 233 234 76 291
1404 4 2 10 8 202 178 28 140
1405 4 2 10 8 238 80 240 294
1406 4 2 10 8 78 140 134 280
1407 4 2 10 8 82 128 118 284
1408 4 2 10 8 173 188 184 298
1409 4 2 10 8 239 238 240 294
1410 4 2 10 8 209 57 67 208
1411 4 2 10 8 233 141 203 291
1412 4 2 10 8 98 233 15 203
1413 4 2 10 8 217 61 66 220
1414 4 2 10 8 94 272 222 283
1415 4 2 10 8 176 182 31 284
1416 4 2 10 8 72 225 68 124
1417 4 2 10 8 233 203 83 291
1418 4 2 10 8 120 17 238 80
1419 4 2 10 8 232 280 134 297
1420 4 2 10 8 36 4 130 87
1421 4 2 10 8 122 224 63 71
1422 4 2 10 8 60 119 129 279
1423 4 2 10 8 128 82 20 241
1424 4 2 10 8 66 65 62 214
1425 4 2 10 8 29 178 180 142
1426 4 2 10 8 24 216 219 285
1427 4 2 10 8 184 288 186 298
1428 4 2 10 8 31 182 128 284
1429 4 2 10 8 183 184 175 275
1430 4 2 10 8 35 132 173 279
1431 4 2 10 8 126 97 13 125
1432 4 2 10 8 180 199 190 294
1433 4 2 10 8 60 58 211 298
1434 4 2 10 8 25 270 283 286
1435 4 2 10 8 184 175 275 298
1436 4 2 10 8 97 26 226 287
1437 4 2 10 8 35 201 130 293
1438 4 2 10 8 208 272 218 278
1439 4 2 10 8 269 286 270 287
1440 4 2 10 8 203 233 15 141
1441 4 2 10 8 238 239 240 80
1442 4 2 10 8 35 173 201 293
1443 4 2 10 8 137 210 93 290
1444 4 2 10 8 25 223 95 286
1445 4 2 10 8 173 279 187 293
1446 4 2 10 8 53 204 119 293
1447 4 2 10 8 85 172 191 292
1448 4 2 10 8 58 7 137 210
1449 4 2 10 8 18 82 118 237
1450 4 2 10 8 20 31 128 241
1451 4 2 10 8 25 283 272 286
1452 4 2 10 8 29 178 142 143
1453 4 2 10 8 201 187 177 293
1454 4 2 10 8 269 277 286 287
1455 4 2 10 8 19 29 180 142
1456 4 2 10 8 185 184 183 288
1457 4 2 10 8 61 217 214 215
1458 4 2 10 8 184 186 173 298
1459 4 2 10 8 97 227 13 125
1460 4 2 10 8 33 131 32 175
1461 4 2 10 8 173 187 201 293
1462 4 2 10 8 119 53 3 204
1463 4 2 10 8 13 76 228 126
1464 4 2 10 8 142 240 19 80
1465 4 2 10 8 66 61 217 214
1466 4 2 10 8 181 37 133 38
1467 4 2 10 8 39 179 203 291
1468 4 2 10 8 34 132 9 90
1469 4 2 10 8 184 275 288 298
1470 4 2 10 8 136 118 137 290
1471 4 2 10 8 35 132 34 173
1472 4 2 10 8 219 217 24 285
1473 4 2 10 8 125 121 6 277
1474 4 2 10 8 136 137 7 93
1475 4 2 10 8 186 185 194 288
1476 4 2 10 8 60 132 119 279
1477 4 2 10 8 128 31 32 182
1478 4 2 10 8 23 212 92 271
1479 4 2 10 8 224 235 221 79
1480 4 2 10 8 117 206 6 55
1481 4 2 10 8 94 218 68 72
1482 4 2 10 8 6 121 88 277
1483 4 2 10 8 85 21 172 292
1484 4 2 10 8 193 181 200 281
1485 4 2 10 8 233 76 141 291
1486 4 2 10 8 201 36 130 87
1487 4 2 10 8 64 63 123 216
1488 4 2 10 8 226 95 223 286
1489 4 2 10 8 198 182 176 284
1490 4 2 10 8 186 187 173 279
1491 4 2 10 8 56 67 57 208
1492 4 2 10 8 64 135 62 219
1493 4 2 10 8 94 11 63 71
1494 4 2 10 8 127 39 179 38
1495 4 2 10 8 17 14 236 79
1496 4 2 10 8 65 217 219 214
1497 4 2 10 8 61 66 62 214
1498 4 2 10 8 11 94 222 71
1499 4 2 10 8 26 286 226 287
1500 4 2 10 8 91 188 90 211
1501 4 2 10 8 94 11 222 72
1502 4 2 10 8 184 188 175 298
1503 4 2 10 8 192 174 85 282
1504 4 2 10 8 9 60 211 132
1505 4 2 10 8 91 8 131 211
1506 4 2 10 8 272 283 270 286
1507 4 2 10 8 14 231 232 96
1508 4 2 10 8 219 214 217 285
1509 4 2 10 8 94 68 11 72
1510 4 2 10 8 64 62 65 219
1511 4 2 10 8 39 203 15 141
1512 4 2 10 8 203 197 83 291
1513 4 2 10 8 270 286 26 287
1514 4 2 10 8 203 179 197 291
1515 4 2 10 8 226 223 95 74
1516 4 2 10 8 202 28 16 140
1517 4 2 10 8 58 8 211 131
1518 4 2 10 8 75 13 227 74
1519 4 2 10 8 123 99 235 79
1520 4 2 10 8 135 123 18 99
1521 4 2 10 8 232 14 96 134
1522 4 2 10 8 36 130 35 201
1523 4 2 10 8 223 226 227 74
1524 4 2 10 8 130 53 119 293
1525 4 2 10 8 135 136 7 93
1526 4 2 10 8 228 97 13 126
1527 4 2 10 8 14 17 236 134
1528 4 2 10 8 6 56 88 121
1529 4 2 10 8 73 74 223 121
1530 4 2 10 8 186 184 185 288
1531 4 2 10 8 33 8 131 91
1532 4 2 10 8 74 13 227 121
1533 4 2 10 8 210 7 137 93
1534 4 2 10 8 75 95 12 74
1535 4 2 10 8 69 95 12 75
1536 4 2 10 8 219 62 65 214
1537 4 2 10 8 69 221 235 79
1538 4 2 10 8 70 224 221 79
1539 4 2 10 8 99 123 18 79
1540 4 2 10 8 224 122 70 71
1541 4 2 10 8 70 122 224 79
1542 4 2 10 8 69 236 14 79
1543 4 2 10 8 57 10 3 89
1544 4 2 10 8 96 236 14 69
1545 4 2 10 8 72 225 124 73
1546 4 2 10 8 235 236 69 79
1547 4 2 10 8 62 135 7 93
1548 4 2 10 8 226 95 75 74
1549 4 2 10 8 212 129 10 92
1550 4 2 10 8 125 227 13 121
1551 4 2 10 8 101 20 30 81
1552 4 2 10 8 139 66 61 220
1553 4 2 10 8 227 226 75 74
1554 4 2 10 8 26 97 228 287
1555 4 2 10 8 86 54 5 37
1556 4 2 10 8 67 66 139 220
1557 4 2 10 8 57 61 10 92
1558 4 2 10 8 14 96 69 75
1559 4 2 10 8 228 231 26 287
1560 4 2 10 8 69 70 221 79
1561 4 2 10 8 30 19 101 81
1562 4 2 10 8 98 16 1 77
1563 4 2 10 8 98 1 15 77
1564 4 2 10 8 177 36 87 37
1565 4 2 10 8 33 59 8 91
1566 4 2 10 8 59 34 9 90
1567 4 2 10 8 54 4 36 87
1568 4 2 10 8 87 86 177 37
1569 4 2 10 8 180 176 30 101
1570 4 2 10 8 60 212 279 129
1571 4 2 10 8 60 279 212 213
1572 4 2 10 8 216 64 135 123
1573 4 2 10 8 135 64 216 219
1574 4 2 10 8 135 285 216 123
1575 4 2 10 8 216 285 135 219
1576 4 2 10 8 86 281 200 181
1577 4 2 10 8 88 281 269 206
1578 4 2 10 8 269 281 88 277
1579 4 2 10 8 269 296 88 206
1580 4 2 10 8 233 234 83 229
1581 4 2 10 8 233 83 234 291
1582 4 2 10 8 283 285 123 216
1583 4 2 10 8 205 274 293 177
1584 4 2 10 8 293 274 205 207
1585 4 2 10 8 281 177 86 200
1586 4 2 10 8 281 86 177 205
1587 4 2 10 8 138 290 58 137
1588 4 2 10 8 58 290 138 275
1589 4 2 10 8 76 232 291 230
1590 4 2 10 8 280 84 83 196
1591 4 2 10 8 280 83 84 276
1592 4 2 10 8 292 288 21 185
1593 4 2 10 8 292 21 288 266
1594 4 2 10 8 194 21 288 185
1595 4 2 10 8 194 288 21 266
1596 4 2 10 8 76 228 291 232
1597 4 2 10 8 76 291 228 126
1598 4 2 10 8 276 291 228 232
1599 4 2 10 8 276 228 291 126
1600 4 2 10 8 289 292 295 268
1601 4 2 10 8 295 292 289 273
1602 4 2 10 8 229 78 280 140
1603 4 2 10 8 280 78 229 234
1604 4 2 10 8 284 183 273 198
1605 4 2 10 8 284 273 183 275
1606 4 2 10 8 195 273 183 198
1607 4 2 10 8 286 277 208 223
1608 4 2 10 8 208 277 286 272
1609 4 2 10 8 208 225 286 223
1610 4 2 10 8 286 225 208 272
1611 4 2 10 8 210 58 290 137
1612 4 2 10 8 210 290 58 213
1613 4 2 10 8 296 209 208 22
1614 4 2 10 8 296 208 209 278
1615 4 2 10 8 205 133 5 55
1616 4 2 10 8 5 133 205 86
1617 4 2 10 8 205 4 130 53
1618 4 2 10 8 130 4 205 87
1619 4 2 10 8 284 190 294 176
1620 4 2 10 8 284 294 190 273
1621 4 2 10 8 188 131 33 175
1622 4 2 10 8 188 33 131 91
1623 4 2 10 8 297 276 231 232
1624 4 2 10 8 297 231 276 287
1625 4 2 10 8 228 231 276 232
1626 4 2 10 8 228 276 231 287
1627 4 2 10 8 285 99 283 123
1628 4 2 10 8 285 283 99 267
1629 4 2 10 8 124 208 73 225
1630 4 2 10 8 124 73 208 56
1631 4 2 10 8 121 73 208 225
1632 4 2 10 8 121 208 73 56
1633 4 2 10 8 69 235 96 236
1634 4 2 10 8 69 96 235 221
1635 4 2 10 8 232 78 280 230
1636 4 2 10 8 280 78 232 134
1637 4 2 10 8 63 94 224 216
1638 4 2 10 8 224 94 63 71
1639 4 2 10 8 292 190 195 172
1640 4 2 10 8 292 195 190 273
1641 4 2 10 8 285 272 267 278
1642 4 2 10 8 285 267 272 283
1643 4 2 10 8 6 277 117 125
1644 4 2 10 8 117 277 6 88
1645 4 2 10 8 92 57 89 10
1646 4 2 10 8 92 89 57 209
1647 4 2 10 8 287 277 227 97
1648 4 2 10 8 227 277 287 286
1649 4 2 10 8 227 226 287 97
1650 4 2 10 8 287 226 227 286
1651 4 2 10 8 89 10 129 92
1652 4 2 10 8 89 129 10 3
1653 4 2 10 8 33 188 90 91
1654 4 2 10 8 90 188 33 34
1655 4 2 10 8 90 59 33 91
1656 4 2 10 8 33 59 90 34
1657 4 2 10 8 269 272 208 296
1658 4 2 10 8 208 272 269 277
1659 4 2 10 8 208 88 269 296
1660 4 2 10 8 269 88 208 277
1661 4 2 10 8 273 288 183 275
1662 4 2 10 8 273 185 183 288
1663 4 2 10 8 183 185 273 195
$EndElements
