$MeshFormat
4.1 0 8
$EndMeshFormat
$Entities
20 32 18 6
1 15.5 0 215 0 
2 30.5 -3.67394039744206e-15 200 0 
3 0.5 -95 200 0 
4 30.5 -95 200 0 
5 0.5 -45 200 0 
6 30.5 -45 200 0 
7 15.5 -45 215 0 
8 30.5 95 200 0 
9 0.5 95 200 0 
10 30.5 45 200 0 
11 0.5 44.99999999999999 200 0 
12 15.5 45 215 0 
13 110.5 -15 200 0 
14 110.5 15 200 0 
15 60.5 -15 200 0 
16 60.5 15 200 0 
17 60.5 0 215 0 
18 1.285879139104721e-14 -2.999519565323715e-30 410 0 
19 210 -2.449293597853543e-14 200 0 
20 210 0 0 0 
1 15.4999999 -1.000000035819803e-07 214.9999999 15.5000001 1.000000035819803e-07 215.0000001 0 2 1 -1 
2 15.4999999 -1.000000036739404e-07 199.9999999 30.5000001 1e-07 215.0000001 0 2 2 -1 
3 0.4999998999999971 -15.0000001 199.9999999 30.5000001 15.0000001 200.0000001 0 2 2 -2 
4 0.4999999000000006 -95.00000009999999 199.9999999 30.5000001 -94.99999990000001 215.0000001 0 2 4 -3 
5 0.4999998999999929 -95.00000010000001 199.9999999 0.5000001000000071 -44.99999989999999 200.0000001 0 2 5 -3 
6 15.49999989999999 -45.00000010000001 199.9999999 30.50000010000001 -44.99999989999999 215.0000001 0 2 6 -7 
7 0.4999998999999944 -45.00000010000001 199.9999999 15.5000001 -44.99999989999999 215.0000001 0 2 7 -5 
8 30.49999989999999 -95.00000010000001 199.9999999 30.50000010000001 -44.99999989999999 200.0000001 0 2 6 -4 
9 0.4999998999999935 -95.00000010000001 199.9999999 30.50000010000001 -94.99999989999999 200.0000001 0 2 3 -4 
10 0.4999998999999935 -45.00000010000001 199.9999999 30.50000010000001 -29.99999989999999 200.0000001 0 2 6 -5 
11 15.4999999 -45.0000001 214.9999999 15.5000001 -44.9999999 215.0000001 0 2 7 -7 
12 0.4999999000000006 94.99999990000001 199.9999999 30.5000001 95.00000009999999 215.0000001 0 2 9 -8 
13 30.49999989999998 44.99999989999999 199.9999999 30.50000010000001 95.00000010000001 200.0000001 0 2 10 -8 
14 0.4999998999999926 44.99999989999998 199.9999999 15.50000010000001 45.0000001 215.0000001 0 2 11 -12 
15 15.49999989999999 44.99999989999998 199.9999999 30.50000010000001 45.00000010000001 215.0000001 0 2 12 -10 
16 0.4999998999999797 44.99999989999998 199.9999999 0.5000001000000142 95.00000010000001 200.0000001 0 2 11 -9 
17 0.4999998999999917 94.99999989999999 199.9999999 30.50000009999999 95.00000010000001 200.0000001 0 2 8 -9 
18 0.4999998999999899 29.99999989999999 199.9999999 30.50000010000001 45.00000010000001 200.0000001 0 2 11 -10 
19 15.4999999 44.9999999 214.9999999 15.5000001 45.0000001 215.0000001 0 2 12 -12 
20 110.4999999 -15.0000001 199.9999999 110.5000001 15.0000001 215.0000001 0 2 14 -13 
21 60.49999989999998 -15.00000010000002 199.9999999 110.5000001 -14.99999989999999 200.0000001 0 2 15 -13 
22 60.49999989999998 -1.000000153794645e-07 199.9999999 60.50000010000002 15.00000010000001 215.0000001 0 2 16 -17 
23 60.49999989999999 -15.00000010000001 199.9999999 60.50000010000001 1.000000064976803e-07 215.0000001 0 2 17 -15 
24 60.49999989999998 14.99999989999998 199.9999999 110.5000001 15.00000010000001 200.0000001 0 2 16 -14 
25 110.4999999 -15.00000010000001 199.9999999 110.5000001 15.00000009999999 200.0000001 0 2 13 -14 
26 45.49999989999999 -15.00000010000001 199.9999999 60.50000010000001 15.00000010000001 200.0000001 0 2 16 -15 
27 60.4999999 -1e-07 214.9999999 60.5000001 1e-07 215.0000001 0 2 17 -17 
28 -1.000001092983117e-07 -1.000001160431983e-07 409.9999998999998 1.000001098904307e-07 1.000001038554214e-07 410.0000001000002 0 2 18 -18 
29 -9.999999406318238e-08 -1.00000048985872e-07 199.9999999 210.0000001 1e-07 410.0000001 0 2 19 -18 
30 -210.0000049002457 -200.0000049002457 199.9999950997543 210.0000049002457 200.0000049002457 200.0000049002457 0 2 19 -19 
31 -210.0000001 -200.0000001 -1e-07 210.0000001 200.0000001 1e-07 0 2 20 -20 
32 209.9999999 -1e-07 -9.999999406318238e-08 210.0000001 1e-07 200.0000001 0 2 20 -19 
1 0.4999999000000006 -15.0000001 199.9999999 30.5000001 15.0000001 215.0000001 0 4 -1 -2 3 2 
2 0.4999998999999971 -15.0000001 199.9999999 30.5000001 15.0000001 200.0000001 0 1 3 
3 0.4999999000000006 -95.00000009999999 199.9999999 30.5000001 -44.9999999 215.0000001 0 5 -4 -8 6 7 5 
4 0.4999998999999935 -95.00000010000001 199.9999999 30.50000010000001 -94.99999989999999 215.0000001 0 2 4 9 
5 0.4999998999999917 -95.00000010000001 199.9999999 30.50000010000001 -29.99999989999999 200.0000001 0 4 9 -8 10 5 
6 0.4999999000000006 -45.0000001 199.9999999 30.5000001 -29.9999999 215.0000001 0 4 -11 -6 10 -7 
7 0.4999998999999953 44.99999989999999 199.9999999 30.5000001 95.00000009999999 215.0000001 0 5 -12 -16 14 15 13 
8 0.4999998999999917 94.99999989999999 199.9999999 30.5000001 95.00000010000001 215.0000001 0 2 12 17 
9 0.4999998999999793 29.99999989999998 199.9999999 30.50000010000002 95.00000010000001 200.0000001 0 4 17 -16 18 13 
10 0.4999998999999988 29.9999999 199.9999999 30.5000001 45.0000001 215.0000001 0 4 -19 -14 18 -15 
11 60.4999999 -15.0000001 199.9999999 110.5000001 15.0000001 215.0000001 0 5 -20 -24 22 23 21 
12 110.4999999 -15.00000010000001 199.9999999 110.5000001 15.0000001 215.0000001 0 2 20 25 
13 45.49999989999998 -15.00000010000002 199.9999999 110.5000001 15.00000010000001 200.0000001 0 4 25 -24 26 21 
14 45.4999999 -15.0000001 199.9999999 60.5000001 15.0000001 215.0000001 0 4 -27 -22 26 -23 
15 -420.0000000999999 -346.4101616137756 199.9999999 210.0000001 346.4101616137754 410.0000001 0 4 -28 -29 30 29 
16 -210.0000049002457 -200.0000049002457 199.9999950997543 210.0000049002457 200.0000049002457 200.0000049002457 0 14 30 -5 -10 8 -9 -3 -13 -18 16 -17 -21 -26 24 -25 
17 -210.0000001000032 -224.0647466029099 -9.999999406318238e-08 210.0000001000051 224.0647466030836 200.0000001007835 0 4 31 32 -30 -32 
18 -210.0000001 -200.0000001 -1e-07 210.0000001 200.0000001 1e-07 0 1 31 
1 0.4999998999999971 -15.0000001 199.9999999 30.5000001 15.0000001 215.0000001 0 2 1 -2 
2 0.4999998999999917 -95.00000010000001 199.9999999 30.50000010000001 -29.99999989999999 215.0000001 0 4 3 4 -5 6 
3 0.4999998999999793 29.99999989999998 199.9999999 30.50000010000002 95.00000010000001 215.0000001 0 4 7 8 -9 10 
4 45.49999989999998 -15.00000010000002 199.9999999 110.5000001 15.00000010000001 215.0000001 0 4 11 12 -13 14 
5 -210.0000049002489 -224.0647514031556 -4.900245698991057e-06 210.0000049002508 224.0647514033294 200.0000049010292 0 7 17 -18 16 2 5 9 13 
6 -420.0000049002456 -346.4101664140213 199.9999950997543 210.0000049002457 346.410166414021 410.0000049002457 0 12 15 -16 -3 -4 -6 -1 -7 -8 -10 -11 -12 -14 
$EndEntities
$Nodes
76 340 1 340
0 1 0 1
1
15.5 0 215
0 2 0 1
2
30.5 -3.67394039744206e-15 200
0 3 0 1
3
0.5 -95 200
0 4 0 1
4
30.5 -95 200
0 5 0 1
5
0.5 -45 200
0 6 0 1
6
30.5 -45 200
0 7 0 1
7
15.5 -45 215
0 8 0 1
8
30.5 95 200
0 9 0 1
9
0.5 95 200
0 10 0 1
10
30.5 45 200
0 11 0 1
11
0.5 44.99999999999999 200
0 12 0 1
12
15.5 45 215
0 13 0 1
13
110.5 -15 200
0 14 0 1
14
110.5 15 200
0 15 0 1
15
60.5 -15 200
0 16 0 1
16
60.5 15 200
0 17 0 1
17
60.5 0 215
0 18 0 1
18
1.285879139104721e-14 -2.999519565323715e-30 410
0 19 0 1
19
210 -2.449293597853543e-14 200
0 20 0 1
20
210 0 0
1 1 0 0
1 2 0 1
21
26.10660171779821 -2.597868168706478e-15 210.6066017177982
1 3 0 6
22
23
24
25
26
27
24.85234702788101 11.72747223702044 200
12.16218599065532 14.62391868272736 200
1.985466981463743 6.508256086763433 200
1.985466981463674 -6.508256086763292 200
12.16218599065523 -14.62391868272734 200
24.85234702788098 -11.72747223702047 200
1 4 0 2
28
29
23.00000000000002 -95 212.9903810567666
8.000000000000034 -95 212.9903810567666
1 5 0 0
1 6 0 1
30
26.10660171779823 -45 210.6066017177982
1 7 0 1
31
4.893398282201805 -45 210.6066017177982
1 8 0 0
1 9 0 1
32
15.5 -95 200
1 10 0 2
33
34
23.00000000000002 -32.00961894323343 200
8.000000000000032 -32.00961894323341 200
1 11 0 0
1 12 0 2
35
36
7.999999999999981 95 212.9903810567666
22.99999999999996 95 212.9903810567666
1 13 0 0
1 14 0 1
37
4.893398282201773 44.99999999999999 210.6066017177982
1 15 0 1
38
26.10660171779819 44.99999999999999 210.6066017177982
1 16 0 0
1 17 0 1
39
15.5 95 200
1 18 0 2
40
41
7.999999999999983 32.00961894323343 200
22.99999999999997 32.00961894323341 200
1 19 0 0
1 20 0 2
42
43
110.5 7.500000000000019 212.9903810567666
110.5 -7.499999999999966 212.9903810567666
1 21 0 0
1 22 0 1
44
60.5 10.60660171779823 210.6066017177982
1 23 0 1
45
60.5 -10.60660171779819 210.6066017177982
1 24 0 0
1 25 0 1
46
110.5 -1.06581410364015e-14 200
1 26 0 2
47
48
47.50961894323343 7.500000000000019 200
47.50961894323341 -7.499999999999966 200
1 27 0 0
1 28 0 0
1 29 0 3
49
50
51
194.014702725018 -4.525704470089877e-14 280.3635186295554
148.4924240491747 -3.463824224941966e-14 348.4924240491753
80.36351862955502 -1.874608111579109e-14 394.0147027250181
1 30 0 12
52
53
54
55
56
57
58
59
60
61
62
63
184.9399099467537 94.74744904761793 200
117.3376613020618 165.8671250298877 200
24.72180546902409 198.6092971413388 200
-72.91287549969569 187.557912656007 200
-155.4848108172172 134.4324547965112 200
-203.6016946851623 48.99303408609654 200
-203.6016946851619 -48.99303408609805 200
-155.4848108172162 -134.4324547965123 200
-72.91287549969402 -187.5579126560076 200
24.72180546902403 -198.6092971413389 200
117.337661302061 -165.8671250298882 200
184.9399099467533 -94.74744904761866 200
1 31 0 12
64
65
66
67
68
69
70
71
72
73
74
75
184.9399099467537 94.74744904761793 0
117.3376613020618 165.8671250298877 0
24.72180546902409 198.6092971413388 0
-72.91287549969569 187.557912656007 0
-155.4848108172172 134.4324547965112 0
-203.6016946851623 48.99303408609654 0
-203.6016946851619 -48.99303408609805 0
-155.4848108172162 -134.4324547965123 0
-72.91287549969402 -187.5579126560076 0
24.72180546902403 -198.6092971413389 0
117.337661302061 -165.8671250298882 0
184.9399099467533 -94.74744904761866 0
1 32 0 1
76
210 0 100.0000000000003
2 1 0 5
77
78
79
80
81
19.89339828220182 9.653913793583703 210.6066017177982
5.119677925461273 5.197890212905197e-14 210.8281537497786
19.89339828220175 -9.653913793584124 210.6066017177979
7.869187105179159 9.650230874003942 208.5815930131099
7.869187105178566 -9.65023087400348 208.5815930131099
2 2 0 1
82
15.49999999999999 1.953992523340276e-14 200
2 3 0 10
83
84
85
86
87
88
89
90
91
92
18.13192972755478 -54.90381339500394 214.7672931138111
14.85715625641643 -84.03214525469079 214.9862187332674
11.3381373694332 -54.90145670623278 214.4110686433828
15.44842458753716 -65.22177032461914 214.9999113322989
5.808842350940036 -65.28099906084111 211.4490813352455
25.15591783367957 -65.27279439532123 211.4788174821812
14.20228475095899 -73.78795104903273 214.9437590696721
8.429447747839703 -83.82973251312832 213.2290321206606
20.29893038216439 -73.8196391152301 214.2116243683521
24.08862009225962 -84.13574072915669 212.2977886187247
2 4 0 0
2 5 0 2
93
94
15.5 -70 200
15.5 -45 200
2 6 0 2
95
96
20.17712281982636 -34.69291502273314 209.8431967063378
10.56474770681182 -35.74692573953237 210.7249196515803
2 7 0 8
97
98
99
100
101
102
103
104
18.06568116418799 54.94406165704756 214.7789471940234
15.49999999999997 82.16600484248974 215
9.499417024564957 55.01512931567864 213.7474726388133
15.53525000735587 65.53163325336011 214.9999585811755
25.19659114074487 65.34008205806299 211.4444799029588
6.830753031186196 65.85230471506385 212.2410847964432
20.58132628115641 74.19934299532628 214.1131188340646
24.28165616313282 83.49841175913721 212.1606954995391
2 8 0 0
2 9 0 2
105
106
15.5 70 200
15.5 45 200
2 10 0 2
107
108
10.82287718017365 34.69291502273315 209.8431967063378
20.43525229318819 35.74692573953238 210.7249196515803
2 11 0 10
109
110
111
112
113
114
115
116
117
118
70.40381339500394 2.631929727554778 214.7672931138111
99.53214525469079 -0.6428437435836643 214.9862187332674
70.40145670623278 -4.161862630566799 214.4110686433828
80.72177032461916 -0.05157541246288705 214.9999113322989
80.78099906084114 -9.691157649059976 211.4490813352455
80.77279439532123 9.655917833679576 211.4788174821812
89.28795104903274 -1.297715249040995 214.9437590696721
99.32973251312831 -7.070552252160338 213.2290321206606
89.31963911523012 4.79893038216441 214.2116243683521
99.63574072915671 8.58862009225958 212.2977886187247
2 12 0 0
2 13 0 2
119
120
85.5 -3.217786418364948e-15 200
60.44893991495558 3.144841869989222e-15 200
2 14 0 2
121
122
49.64874257106648 -3.698096515848886 209.6733807105107
53.05479484531569 4.983251290546441 212.0306328503504
2 15 0 32
123
124
125
126
127
128
129
130
131
132
133
134
135
136
137
138
139
140
141
142
143
144
145
146
147
148
149
150
151
152
153
154
38.3517567006991 70.33760665475934 392.8073066815258
-169.7786516712807 -86.21361801613688 284.1460678955219
38.35175670069903 -70.33760665476123 392.807306681525
-169.7786516712164 86.21361801611096 284.1460678956805
-22.8276897157991 181.882685095163 284.3015483441838
-22.82768971579842 -181.8826850951632 284.3015483441835
149.8374456090158 125.7515372641244 264.9185045563665
147.716382585687 -126.3916184436221 268.3198937256855
73.04174711056106 171.69956848586 279.1352344056532
73.04399015251688 -171.6982808833673 279.1362440940886
-107.3355105755429 153.5265532709938 281.1955623657532
-109.976686382084 98.36569442055587 346.0737762402877
-151.7730753913716 18.3029774530932 343.8596441215278
-76.49447954711121 23.14635429825764 394.0565024045646
-113.3368723989324 -62.89679311771411 363.9916342238991
-96.27419768465383 -136.3619185702275 319.7111620038713
-199.703969147736 5.318650681723657 264.7080917424228
-12.88335564191163 -128.9447710531976 360.0094462283131
24.57849403442367 136.3177255737534 351.6860797472019
112.5382598477704 52.75211576980534 368.425410244803
92.35619277979399 -54.64241384288996 379.6621730974821
81.46860037237727 -122.8122761916473 344.3399435835302
-34.35124959991708 -61.41433483811026 396.8798358736792
-38.15103256667349 97.10720763312119 379.5776529469315
164.3609484240201 65.33458860043835 311.2624725486554
163.1286481576099 -64.96181856022285 313.2980688179532
-56.48042598587273 142.686445129807 335.8811949470394
100.0057458637576 121.5943714500475 333.4098104756444
32.09552189224549 -161.4047791068523 319.7835369626522
-109.4494394890108 -162.3937275905321 255.1905413256363
193.6674086289887 58.737362147577 252.8131059244861
193.7281716307649 -58.02848570272333 253.4503656252434
2 16 0 60
155
156
157
158
159
160
161
162
163
164
165
166
167
168
169
170
171
172
173
174
175
176
177
178
179
180
181
182
183
184
185
186
187
188
189
190
191
192
193
194
195
196
197
198
199
200
201
202
203
204
205
206
207
208
209
210
211
212
213
214
-11.62450858856772 -0.7792401561222968 200
85.5 -36.65063509461097 200
85.5 36.65063509461096 200
-21.15063509461097 -70 200
-24.22358358114914 72.21317723912038 200
52.15063509461096 70 200
52.18909956068104 -68.27370964917966 200
-121.5446904526463 10.7351350545281 200
-8.854179978013811 -30.88584549090387 200
-10.10789018223601 29.18609963661632 200
46.6191755385159 -25.85453651427077 200
42.72761783629775 27.33176463976605 200
-80.95141192832915 107.8436602237233 200
-82.65497631969198 -107.9720066904286 200
110.2377469865592 110.1734598651167 200
115.7972003143605 -99.57021006345016 200
62.66162859505907 37.56198950190464 200
74.94407055883156 58.30672577015846 200
53.40489991918152 -46.93623665907151 200
71.95775653345297 -55.07535714858555 200
72.37636014785636 -86.78925135304215 200
62.72050683063257 -135.0059190098607 200
-30.46092282031585 142.5077428746218 200
-32.82576205507704 -143.9603599677701 200
16.8527583740966 -127.0959293531616 200
-36.80349194589457 -105.4307716750129 200
73.71850413127862 89.72686632185827 200
63.96114127253936 142.6353056678642 200
17.45367065354126 128.1253909473041 200
-37.36205581709302 101.3502550370466 200
-136.1265673206378 67.4861123030295 200
-84.07002523396098 45.80628895611595 200
-64.01521683028372 -6.878806879485541 200
-100.348517173103 -47.23463860223443 200
-48.93345338095089 28.17587553877026 200
-51.50002242484955 -54.40416707919309 200
111.1362643586184 60.80974206351669 200
101.8992055979169 -56.81954999606785 200
155.2639165918314 -47.83184631671826 200
147.2929810574565 0.8415943770520764 200
-34.19437825856303 4.105689661359586 200
37.07719583380317 -11.2650270346018 200
32.32374782708107 -22.50815345631968 200
36.38788397167764 11.2435267165686 200
0.7231970889310869 18.76979546096097 200
-3.606453930897451 -16.51296481778906 200
-23.57544791751825 17.04983139716975 200
-26.47602231518184 -19.80422328146348 200
-26.78264039987977 43.53753313286782 200
-50.38719505689382 66.48779835460738 200
20.06765616912347 -22.57575645250687 200
20.01879347501644 22.25451044576793 200
30.16364443199495 20.91010568965807 200
63.59636639823007 -35.90335308330776 200
50.8352740770133 49.21386964085347 200
-20.80502955503156 -47.03694562444075 200
-150.8744458509719 -33.95678234066072 200
-138.592888969229 -74.51778330318682 200
-8.472787130104042 12.86081075628743 200
40.04298414630902 -0.003071474004724121 200
2 17 0 15
215
216
217
218
219
220
221
222
223
224
225
226
227
228
229
-210.0000000000016 1.220712420036189e-11 105.5118278380104
155.4818540585154 134.4355565803162 115.2856127773736
155.4818540585148 -134.4355565803167 115.2856127773733
-117.3048964033012 -165.8881443775097 99.77550445817154
-117.417709435066 165.8157366299683 96.02527285046585
-24.79529819478828 198.6009871507959 102.6190371694749
72.55348524418133 187.6842810908843 96.15047477149803
-24.23976826615747 -198.6631822600343 104.3183492757596
73.06098043896014 -187.5056295747949 96.09918502266561
-184.8710565458092 94.86924981064723 100.1985373551791
-185.0893953582213 -94.48231415602618 97.215055399478
194.713536950623 74.9097024371829 77.56459961147219
194.7135369506215 -74.90970243718684 77.56459961147394
199.0205855046136 63.82236222637779 138.5192570796017
199.0205373163882 -63.82249852358127 138.5196439485404
2 18 0 16
230
231
232
233
234
235
236
237
238
239
240
241
242
243
244
245
-14.52950085178356 108.5714159567413 0
43.14402759676187 -112.7603443016125 0
-105.5772174380271 -50.05732236864624 0
119.4457433353708 25.01819257032602 0
-105.5772174380275 50.05732236864554 0
53.44982334114585 132.5109538747143 0
49.18455083468351 57.18894894622889 0
43.93697200493751 -28.52276941988791 0
-27.19947830333688 10.57954990806896 0
-26.60674489085145 -73.67050564743774 0
119.8007190309807 -62.81324920478021 0
-87.12610115168101 120.1547764444763 0
-85.8465012005711 -118.0002664711109 0
-18.43176310658668 -143.0463843020856 0
104.8715377520032 95.06653389375498 0
-154.5894560615947 -5.524469770534779e-13 0
3 1 0 0
3 2 0 0
3 3 0 0
3 4 0 0
3 5 0 31
246
247
248
249
250
251
252
253
254
255
256
257
258
259
260
261
262
263
264
265
266
267
268
269
270
271
272
273
274
275
276
24.61541206410781 17.99187895378128 94.74811513442357
64.4683352720638 -46.93237330343553 120.3863489389976
35.26995808089369 -4.767606946811236 144.5901123013443
-34.32914787282193 -58.31752878541126 105.5066484029057
-7.346455989823338 21.2181499736181 150.4550500536911
64.01863224813729 50.76697362706172 138.5974346941969
-4.654082734917597 101.8988090727932 110.2112166246632
-0.06065708720564267 -25.9520283774543 157.8990381327003
33.09998312607043 30.66669427777078 161.8593249408883
-96.55139006411552 21.58600756697323 102.4123431401529
7.999999999999997 -82.5 142.7253195229326
52.27342137020256 -35.66749813347361 162.2277525172412
7.175628018689431 4.263256414560601e-14 171.1518773850952
98 -7.500000000000006 145.7462701146409
35.27299369003722 4.663946075149307 172.5877672856211
26.17500745922903 -18.79013655057713 175.692107904513
11.1132566496257 23.56387172155532 177.0877267699955
3.571381325683159 62.23348959135996 159.092211236697
-56.89046115134204 -12.88306409134688 139.5963658085548
-61.34997778716794 46.88827433430882 144.2353481498465
-104.7785727918949 -81.47102504164329 129.9609782940515
66.45365291469984 96.33842294911548 71.48178351694791
-34.32914787282193 -58.31752878541126 156.2457415293694
81.57564370735662 118.5298233303443 136.6558834803569
98.41243893956668 26.25973402110964 74.13140929340356
-17.98791161140864 7.875261438954248 175.526234916373
7.000758972207713 -117.0151351446529 70.89972131529176
-48.40250803026872 -122.9601090100531 133.1568727083982
21.61320270844163 -52.27209779868083 166.2152779531523
56.94587018203055 -83.35019100085199 154.0365383106189
10.12492305681663 -30.79097366321321 106.82600296516
3 6 0 64
277
278
279
280
281
282
283
284
285
286
287
288
289
290
291
292
293
294
295
296
297
298
299
300
301
302
303
304
305
306
307
308
309
310
311
312
313
314
315
316
317
318
319
320
321
322
323
324
325
326
327
328
329
330
331
332
333
334
335
336
337
338
339
340
-21.01289644714865 -22.5 290.8508133480629
50.28836517916042 34.78836517916038 283.9865430283173
39.10223339954091 -23.60223339954091 264.1752504915682
105.7729125456023 -22.00306114142263 279.7556537434391
-19.35173696622037 22.59254970912963 254.3934325982115
37.36370590962177 -86.96557200075381 275.1860846421766
35.31435108519911 63.84776887263997 253.9273112929055
82.02904344351322 22.71573144898238 258.3459493077485
9.0448807731591 -20.36420379717431 238.2925351639105
12.55831057073576 -58.03334180641509 256.0821917680885
37.05778481838696 22.18714622488894 246.4934979741183
-14.5353743862179 80.13616260184246 258.1496342635664
-29.4627762794486 -88.73791532621158 249.2243355241004
9.35009595917912 19.40133014113698 236.4819623716019
38.48398629072309 -22.49343401950886 227.5778474156379
15.49999999999989 131.5189039802965 259.4015518655869
82.80386212523739 -17.24061116979891 246.8380223674276
113.6363919728636 9.059419880941277e-14 247.3717935847291
15.50000000000009 -98.328562418795 248.4278401571196
37.67375622580878 18.90865111875668 221.3962824324846
59.61582644525599 -57.99350707080492 241.8181421307361
30.94465505560335 -46.72361728568281 237.2866957014116
10.2753986242652 52.28043920170163 243.2036761995302
91.80231498047443 74.6982667380184 252.5141631964385
-17.98791161140864 7.875261438954249 227.6056319705991
15.49999999999991 96.05674621003837 247.7294423984278
46.24896773119637 0.06197971994388404 235.8361610618691
-12.39444104098351 46.33498768782999 327.4865188145467
-22.44076208064396 -45.54810727991101 240.3081263240867
-89.6955597524731 -50.53202287632797 275.0274768271515
35.67454205187941 -14.07896416637067 337.1544689224348
56.67594740608913 43.31433997302409 231.4448061022125
20.02105188410927 -70.40836942533311 237.5008269587924
-88.66518025485385 55.79361549814431 280.3814646460982
48.43631681008907 -90.54841236626254 236.3883177579787
85.86901899697551 4.324412476377008 235.8616644892502
98.14126981973554 35.86963744576705 233.5979868374183
55.41839164170152 91.2068597788504 234.5257590092359
-18.14393781676923 56.24316456268497 229.4549731808715
104.098446470429 -37.26444775950798 228.8433902610232
66.72799715697568 -1.786766507351704 234.10091565762
28.67698455995597 37.33040336573721 231.8120548358267
-9.060269508783943 -30.26247592271022 224.700107168039
-12.8276118239799 -79.04264819507792 304.7912120163015
18.93434749389372 85.99247994107314 302.9114846611087
-20.64754810101965 117.3249079275144 236.6913495010245
115.9381826631733 36.30274865017256 293.9078699716857
12.28726901775784 6.045442940659221 275.8044602299701
-3.392642707284875 23.12231110942923 220.1643776983081
27.0718919803821 -7.447603173818851 227.9370185613549
-60.97878421633388 -10.86675644718382 253.1852633663163
15.07911032299303 73.84783618613078 236.5274513051031
13.80997097667471 -51.15894988965331 232.2564279501558
65.71213173970543 -32.67502938088663 228.8397403882252
65.1302836076506 -49.71123182804755 305.9962405402676
16.54947242191256 -31.94283375815615 227.049671179377
99.7063667642081 9.068193373507542 232.1198540304624
25.22392060390149 22.58367202368845 213.2413485399155
13.40272869281895 -22.03955000053892 212.4132124195902
134.7423013404039 17.66974311325147 231.149145026296
70.12212145360655 21.17743105326551 229.4734982998853
11.77558833954233 -11.74953946052059 222.0936530312159
54.81271412405992 4.3674170008277 266.5419817212659
39.0486158295374 4.845336567779394 213.1511107071338
$EndNodes
$Elements
71 2301 1 2301
0 1 15 1
1 1 
0 2 15 1
2 2 
0 3 15 1
3 3 
0 4 15 1
4 4 
0 5 15 1
5 5 
0 6 15 1
6 6 
0 7 15 1
7 7 
0 8 15 1
8 8 
0 9 15 1
9 9 
0 10 15 1
10 10 
0 11 15 1
11 11 
0 12 15 1
12 12 
0 13 15 1
13 13 
0 14 15 1
14 14 
0 15 15 1
15 15 
0 16 15 1
16 16 
0 17 15 1
17 17 
0 18 15 1
18 18 
0 19 15 1
19 19 
0 20 15 1
20 20 
1 2 1 2
21 2 21 
22 21 1 
1 3 1 7
23 2 22 
24 22 23 
25 23 24 
26 24 25 
27 25 26 
28 26 27 
29 27 2 
1 4 1 3
30 4 28 
31 28 29 
32 29 3 
1 5 1 1
33 5 3 
1 6 1 2
34 6 30 
35 30 7 
1 7 1 2
36 7 31 
37 31 5 
1 8 1 1
38 6 4 
1 9 1 2
39 3 32 
40 32 4 
1 10 1 3
41 6 33 
42 33 34 
43 34 5 
1 12 1 3
44 9 35 
45 35 36 
46 36 8 
1 13 1 1
47 10 8 
1 14 1 2
48 11 37 
49 37 12 
1 15 1 2
50 12 38 
51 38 10 
1 16 1 1
52 11 9 
1 17 1 2
53 8 39 
54 39 9 
1 18 1 3
55 11 40 
56 40 41 
57 41 10 
1 20 1 3
58 14 42 
59 42 43 
60 43 13 
1 21 1 1
61 15 13 
1 22 1 2
62 16 44 
63 44 17 
1 23 1 2
64 17 45 
65 45 15 
1 24 1 1
66 16 14 
1 25 1 2
67 13 46 
68 46 14 
1 26 1 3
69 16 47 
70 47 48 
71 48 15 
1 29 1 4
72 19 49 
73 49 50 
74 50 51 
75 51 18 
1 30 1 13
76 19 52 
77 52 53 
78 53 54 
79 54 55 
80 55 56 
81 56 57 
82 57 58 
83 58 59 
84 59 60 
85 60 61 
86 61 62 
87 62 63 
88 63 19 
1 31 1 13
89 20 64 
90 64 65 
91 65 66 
92 66 67 
93 67 68 
94 68 69 
95 69 70 
96 70 71 
97 71 72 
98 72 73 
99 73 74 
100 74 75 
101 75 20 
1 32 1 2
102 20 76 
103 76 19 
2 1 2 19
104 21 77 1 
105 1 79 21 
106 77 80 1 
107 1 80 78 
108 78 81 1 
109 1 81 79 
110 2 22 21 
111 27 2 21 
112 22 77 21 
113 21 79 27 
114 23 77 22 
115 24 80 23 
116 23 80 77 
117 25 78 24 
118 78 80 24 
119 26 81 25 
120 25 81 78 
121 27 79 26 
122 79 81 26 
2 2 2 7
123 22 2 82 
124 2 27 82 
125 23 22 82 
126 24 23 82 
127 25 24 82 
128 26 25 82 
129 27 26 82 
2 3 2 27
130 3 87 5 
131 29 90 3 
132 3 90 87 
133 6 88 4 
134 4 92 28 
135 88 92 4 
136 5 87 31 
137 30 88 6 
138 7 83 30 
139 31 85 7 
140 7 85 83 
141 28 84 29 
142 28 92 84 
143 84 90 29 
144 83 88 30 
145 31 87 85 
146 85 86 83 
147 86 88 83 
148 89 90 84 
149 84 91 89 
150 84 92 91 
151 85 87 86 
152 87 89 86 
153 86 91 88 
154 89 91 86 
155 87 90 89 
156 91 92 88 
2 4 2 3
157 29 3 32 
158 32 4 28 
159 28 29 32 
2 5 2 9
160 3 5 93 
161 32 3 93 
162 6 4 93 
163 4 32 93 
164 5 34 94 
165 93 5 94 
166 33 6 94 
167 6 93 94 
168 34 33 94 
2 6 2 9
169 34 5 31 
170 6 33 30 
171 30 95 7 
172 7 96 31 
173 95 96 7 
174 33 95 30 
175 31 96 34 
176 34 95 33 
177 34 96 95 
2 7 2 23
178 8 101 10 
179 36 104 8 
180 8 104 101 
181 11 102 9 
182 9 98 35 
183 9 102 98 
184 10 101 38 
185 37 99 11 
186 99 102 11 
187 12 99 37 
188 38 97 12 
189 97 99 12 
190 35 98 36 
191 98 104 36 
192 38 101 97 
193 97 100 99 
194 97 101 100 
195 98 102 100 
196 100 103 98 
197 103 104 98 
198 100 102 99 
199 101 103 100 
200 101 104 103 
2 8 2 3
201 36 8 39 
202 39 9 35 
203 39 35 36 
2 9 2 9
204 8 10 105 
205 39 8 105 
206 11 9 105 
207 9 39 105 
208 10 41 106 
209 105 10 106 
210 40 11 106 
211 11 105 106 
212 41 40 106 
2 10 2 9
213 41 10 38 
214 11 40 37 
215 37 107 12 
216 12 108 38 
217 107 108 12 
218 40 107 37 
219 38 108 41 
220 41 107 40 
221 41 108 107 
2 11 2 27
222 13 113 15 
223 43 116 13 
224 13 116 113 
225 16 114 14 
226 14 118 42 
227 114 118 14 
228 15 113 45 
229 44 114 16 
230 17 109 44 
231 45 111 17 
232 17 111 109 
233 42 110 43 
234 42 118 110 
235 110 116 43 
236 109 114 44 
237 45 113 111 
238 111 112 109 
239 112 114 109 
240 115 116 110 
241 110 117 115 
242 110 118 117 
243 111 113 112 
244 113 115 112 
245 112 117 114 
246 115 117 112 
247 113 116 115 
248 117 118 114 
2 12 2 3
249 43 13 46 
250 46 14 42 
251 46 42 43 
2 13 2 9
252 13 15 119 
253 46 13 119 
254 16 14 119 
255 14 46 119 
256 15 48 120 
257 119 15 120 
258 47 16 120 
259 16 119 120 
260 48 47 120 
2 14 2 9
261 48 15 45 
262 44 16 47 
263 44 122 17 
264 17 121 45 
265 17 122 121 
266 47 122 44 
267 45 121 48 
268 48 121 47 
269 121 122 47 
2 15 2 83
270 51 123 18 
271 18 125 51 
272 123 136 18 
273 18 145 125 
274 136 145 18 
275 19 153 49 
276 49 154 19 
277 52 153 19 
278 19 154 63 
279 49 147 50 
280 50 148 49 
281 49 153 147 
282 148 154 49 
283 50 142 51 
284 51 143 50 
285 50 147 142 
286 143 148 50 
287 51 142 123 
288 125 143 51 
289 53 129 52 
290 129 153 52 
291 54 131 53 
292 53 131 129 
293 55 127 54 
294 127 131 54 
295 56 133 55 
296 55 133 127 
297 57 126 56 
298 126 133 56 
299 58 139 57 
300 57 139 126 
301 59 124 58 
302 124 139 58 
303 60 152 59 
304 59 152 124 
305 61 128 60 
306 128 152 60 
307 62 132 61 
308 61 132 128 
309 63 130 62 
310 130 132 62 
311 63 154 130 
312 123 146 136 
313 141 146 123 
314 123 150 141 
315 142 150 123 
316 124 137 135 
317 135 139 124 
318 124 138 137 
319 124 152 138 
320 140 144 125 
321 125 145 140 
322 125 144 143 
323 126 134 133 
324 126 135 134 
325 126 139 135 
326 127 141 131 
327 133 149 127 
328 127 149 141 
329 132 151 128 
330 128 140 138 
331 138 152 128 
332 128 151 140 
333 131 150 129 
334 129 150 147 
335 147 153 129 
336 130 144 132 
337 130 148 144 
338 130 154 148 
339 141 150 131 
340 144 151 132 
341 134 149 133 
342 135 136 134 
343 136 146 134 
344 146 149 134 
345 135 137 136 
346 137 145 136 
347 138 140 137 
348 140 145 137 
349 140 151 144 
350 141 149 146 
351 147 150 142 
352 144 148 143 
2 16 2 167
353 2 22 198 
354 27 2 196 
355 196 2 214 
356 2 198 214 
357 5 3 158 
358 3 32 179 
359 158 3 180 
360 178 3 179 
361 3 178 180 
362 4 6 161 
363 32 4 179 
364 4 161 175 
365 4 175 176 
366 4 176 179 
367 34 5 163 
368 5 158 210 
369 163 5 210 
370 6 33 197 
371 161 6 173 
372 6 165 173 
373 165 6 197 
374 10 8 160 
375 8 39 183 
376 160 8 181 
377 181 8 182 
378 182 8 183 
379 9 11 159 
380 39 9 183 
381 9 159 184 
382 9 177 183 
383 177 9 184 
384 41 10 166 
385 10 160 209 
386 166 10 209 
387 11 40 164 
388 159 11 203 
389 11 164 203 
390 15 13 156 
391 13 46 194 
392 156 13 192 
393 192 13 193 
394 193 13 194 
395 14 16 157 
396 46 14 194 
397 14 157 191 
398 14 191 194 
399 48 15 165 
400 15 156 208 
401 165 15 208 
402 16 47 166 
403 157 16 171 
404 16 166 171 
405 52 19 194 
406 19 63 193 
407 19 193 194 
408 22 23 206 
409 198 22 207 
410 22 206 207 
411 23 24 199 
412 40 23 199 
413 23 40 206 
414 24 25 155 
415 24 155 213 
416 199 24 213 
417 25 26 200 
418 155 25 200 
419 26 27 205 
420 26 34 200 
421 34 26 205 
422 27 196 197 
423 27 197 205 
424 33 34 205 
425 197 33 205 
426 34 163 200 
427 40 41 206 
428 164 40 199 
429 41 166 207 
430 206 41 207 
431 47 48 214 
432 166 47 198 
433 198 47 214 
434 48 165 196 
435 48 196 214 
436 53 52 169 
437 169 52 191 
438 191 52 194 
439 54 53 182 
440 53 169 182 
441 55 54 177 
442 177 54 183 
443 54 182 183 
444 56 55 167 
445 167 55 177 
446 57 56 185 
447 56 167 185 
448 58 57 211 
449 162 57 185 
450 57 162 211 
451 59 58 212 
452 58 211 212 
453 60 59 168 
454 168 59 212 
455 61 60 178 
456 60 168 178 
457 62 61 176 
458 176 61 179 
459 61 178 179 
460 63 62 170 
461 170 62 176 
462 63 170 193 
463 155 195 201 
464 195 155 202 
465 155 200 202 
466 155 201 213 
467 174 156 192 
468 156 174 208 
469 157 171 172 
470 157 172 191 
471 158 180 190 
472 158 190 210 
473 184 159 204 
474 159 203 204 
475 172 160 181 
476 160 172 209 
477 161 173 174 
478 161 174 175 
479 162 185 186 
480 162 186 187 
481 162 187 188 
482 162 188 211 
483 200 163 202 
484 202 163 210 
485 164 199 213 
486 164 201 203 
487 201 164 213 
488 173 165 208 
489 196 165 197 
490 171 166 209 
491 166 198 207 
492 167 177 184 
493 167 184 204 
494 185 167 186 
495 186 167 204 
496 178 168 180 
497 180 168 190 
498 168 188 190 
499 188 168 212 
500 169 181 182 
501 181 169 191 
502 175 170 176 
503 170 175 192 
504 170 192 193 
505 172 171 209 
506 172 181 191 
507 174 173 208 
508 175 174 192 
509 187 186 189 
510 189 186 204 
511 188 187 190 
512 187 189 195 
513 190 187 202 
514 187 195 202 
515 211 188 212 
516 195 189 201 
517 201 189 203 
518 203 189 204 
519 190 202 210 
2 17 2 58
520 19 228 52 
521 63 229 19 
522 76 228 19 
523 19 229 76 
524 64 226 20 
525 20 227 75 
526 20 226 76 
527 76 227 20 
528 52 216 53 
529 52 228 216 
530 53 221 54 
531 216 221 53 
532 54 220 55 
533 54 221 220 
534 55 219 56 
535 55 220 219 
536 56 224 57 
537 219 224 56 
538 57 215 58 
539 57 224 215 
540 58 225 59 
541 215 225 58 
542 59 218 60 
543 59 225 218 
544 60 222 61 
545 218 222 60 
546 61 223 62 
547 222 223 61 
548 62 217 63 
549 62 223 217 
550 217 229 63 
551 65 216 64 
552 216 226 64 
553 66 221 65 
554 65 221 216 
555 67 220 66 
556 220 221 66 
557 68 219 67 
558 219 220 67 
559 69 224 68 
560 68 224 219 
561 70 215 69 
562 215 224 69 
563 71 225 70 
564 70 225 215 
565 72 218 71 
566 218 225 71 
567 73 222 72 
568 72 222 218 
569 74 223 73 
570 73 223 222 
571 75 217 74 
572 217 223 74 
573 75 227 217 
574 226 228 76 
575 76 229 227 
576 216 228 226 
577 227 229 217 
2 18 2 43
578 64 20 233 
579 20 75 240 
580 233 20 240 
581 65 64 244 
582 64 233 244 
583 66 65 235 
584 235 65 244 
585 67 66 230 
586 230 66 235 
587 68 67 241 
588 67 230 241 
589 69 68 234 
590 234 68 241 
591 70 69 245 
592 69 234 245 
593 71 70 232 
594 232 70 245 
595 72 71 242 
596 71 232 242 
597 73 72 243 
598 72 242 243 
599 74 73 231 
600 231 73 243 
601 75 74 240 
602 74 231 240 
603 234 230 238 
604 230 234 241 
605 230 235 236 
606 230 236 238 
607 237 231 239 
608 231 237 240 
609 239 231 243 
610 232 234 238 
611 234 232 245 
612 232 238 239 
613 232 239 242 
614 236 233 237 
615 233 236 244 
616 237 233 240 
617 236 235 244 
618 236 237 238 
619 238 237 239 
620 242 239 243 
3 1 4 19
621 80 1 78 82 
622 78 1 81 82 
623 79 81 1 82 
624 80 77 1 82 
625 78 25 24 82 
626 78 81 25 82 
627 80 78 24 82 
628 79 21 27 82 
629 77 22 21 82 
630 21 2 27 82 
631 21 22 2 82 
632 1 21 79 82 
633 77 21 1 82 
634 79 26 81 82 
635 80 23 77 82 
636 27 26 79 82 
637 23 22 77 82 
638 81 26 25 82 
639 80 24 23 82 
3 2 4 47
640 6 4 88 93 
641 5 3 93 87 
642 85 83 86 93 
643 83 85 94 93 
644 84 89 91 93 
645 88 4 92 93 
646 92 84 91 93 
647 85 7 83 94 
648 92 91 88 93 
649 89 84 90 93 
650 94 85 87 93 
651 92 84 93 32 
652 93 84 90 32 
653 94 88 83 93 
654 87 90 3 93 
655 31 7 85 94 
656 85 86 87 93 
657 7 30 83 94 
658 88 86 83 93 
659 7 96 95 94 
660 91 89 86 93 
661 28 29 84 32 
662 34 95 96 94 
663 90 87 89 93 
664 92 28 84 32 
665 96 31 34 94 
666 96 7 31 94 
667 90 84 29 32 
668 33 30 95 94 
669 83 30 6 94 
670 95 34 33 94 
671 30 7 95 94 
672 85 87 5 94 
673 4 92 93 32 
674 6 88 83 94 
675 31 85 5 94 
676 88 30 6 83 
677 94 87 5 93 
678 6 88 94 93 
679 93 90 3 32 
680 85 5 87 31 
681 89 87 86 93 
682 86 88 91 93 
683 92 4 28 32 
684 90 29 3 32 
685 33 6 30 94 
686 34 31 5 94 
3 3 4 40
687 8 10 101 105 
688 9 11 105 102 
689 106 99 97 105 
690 8 101 104 105 
691 99 100 97 105 
692 101 103 104 105 
693 106 97 101 105 
694 99 97 12 106 
695 12 97 38 106 
696 98 104 103 105 
697 108 107 12 106 
698 37 99 12 106 
699 107 108 41 106 
700 98 104 105 39 
701 100 101 97 105 
702 107 37 106 40 
703 12 107 37 106 
704 12 38 108 106 
705 41 108 38 106 
706 106 11 99 105 
707 38 97 10 106 
708 35 36 98 39 
709 102 9 98 105 
710 106 41 107 40 
711 102 99 11 105 
712 102 100 99 105 
713 97 101 10 106 
714 10 101 97 38 
715 104 98 36 39 
716 106 101 10 105 
717 105 104 8 39 
718 98 9 35 39 
719 105 9 98 39 
720 37 11 99 106 
721 100 103 101 105 
722 106 37 11 40 
723 104 36 8 39 
724 38 10 41 106 
725 98 100 105 103 
726 98 105 100 102 
3 4 4 47
727 16 14 114 119 
728 15 13 119 113 
729 109 112 111 119 
730 111 109 119 120 
731 117 110 115 119 
732 114 14 118 119 
733 118 110 117 119 
734 109 111 17 120 
735 118 117 114 119 
736 110 116 115 119 
737 113 111 119 120 
738 109 114 119 120 
739 113 116 13 119 
740 112 113 111 119 
741 17 111 45 120 
742 46 110 118 119 
743 116 110 46 119 
744 17 44 109 120 
745 112 109 114 119 
746 117 115 112 119 
747 122 17 121 120 
748 113 115 116 119 
749 42 43 110 46 
750 121 122 120 47 
751 45 121 17 120 
752 109 44 16 120 
753 120 45 121 48 
754 122 44 120 47 
755 111 113 15 120 
756 44 17 122 120 
757 110 118 42 46 
758 47 120 121 48 
759 43 116 110 46 
760 114 109 16 120 
761 45 111 15 120 
762 16 44 109 114 
763 46 118 14 119 
764 119 15 113 120 
765 119 114 16 120 
766 15 113 111 45 
767 46 13 116 119 
768 113 112 115 119 
769 112 114 117 119 
770 42 118 14 46 
771 43 13 116 46 
772 120 15 45 48 
773 120 44 16 47 
3 5 4 584
774 229 170 192 247 
775 170 192 247 275 
776 250 246 264 265 
777 192 174 156 257 
778 229 247 192 259 
779 34 200 26 261 
780 170 193 229 192 
781 252 255 246 265 
782 246 252 238 255 
783 82 22 2 260 
784 246 264 255 276 
785 184 263 159 265 
786 229 192 193 259 
787 184 167 177 252 
788 8 39 252 263 
789 82 2 27 261 
790 184 167 252 265 
791 217 247 231 272 
792 22 82 23 262 
793 10 105 8 263 
794 246 236 252 267 
795 16 171 157 251 
796 219 241 252 255 
797 166 198 207 260 
798 250 252 246 265 
799 238 246 255 276 
800 228 251 191 269 
801 48 196 214 260 
802 228 259 251 270 
803 8 251 160 263 
804 242 272 249 273 
805 242 249 266 273 
806 219 255 252 265 
807 214 47 48 260 
808 191 251 228 259 
809 249 255 264 276 
810 172 171 209 251 
811 237 247 246 276 
812 196 2 214 260 
813 246 250 264 276 
814 184 159 204 265 
815 247 259 227 270 
816 9 252 39 263 
817 250 246 252 263 
818 22 206 207 262 
819 166 209 171 254 
820 237 272 247 276 
821 22 207 198 260 
822 165 196 48 261 
823 232 242 249 266 
824 34 163 200 253 
825 239 249 242 272 
826 164 203 250 271 
827 243 242 218 272 
828 25 26 200 258 
829 166 47 198 260 
830 238 255 249 276 
831 172 157 171 251 
832 163 210 202 253 
833 160 209 10 254 
834 250 254 246 263 
835 26 205 34 261 
836 171 251 16 254 
837 48 47 120 260 
838 235 221 252 267 
839 5 93 3 274 
840 209 160 172 251 
841 184 252 263 265 
842 160 251 209 254 
843 255 264 246 265 
844 231 217 240 247 
845 246 247 237 270 
846 245 225 232 255 
847 238 246 230 252 
848 167 219 252 265 
849 209 251 171 254 
850 8 39 183 252 
851 208 156 174 257 
852 187 189 195 271 
853 155 25 200 258 
854 179 223 256 275 
855 184 252 9 263 
856 26 200 258 261 
857 238 252 230 255 
858 251 254 160 263 
859 82 27 26 261 
860 14 119 16 259 
861 237 231 247 272 
862 48 260 257 261 
863 165 48 257 261 
864 161 173 174 257 
865 33 34 205 261 
866 164 262 250 263 
867 185 255 224 265 
868 251 246 254 263 
869 184 9 159 263 
870 164 250 203 263 
871 41 166 207 254 
872 164 199 213 271 
873 41 207 206 262 
874 26 25 82 258 
875 181 160 8 269 
876 179 176 223 275 
877 239 232 242 249 
878 249 255 232 266 
879 177 167 219 252 
880 252 250 263 265 
881 230 246 236 252 
882 162 264 188 266 
883 240 247 227 270 
884 192 174 257 275 
885 227 247 229 259 
886 164 250 262 271 
887 192 257 156 259 
888 224 234 241 255 
889 181 251 160 269 
890 82 258 22 260 
891 160 251 8 269 
892 248 259 254 260 
893 8 251 263 269 
894 267 269 251 270 
895 238 249 239 276 
896 24 82 25 258 
897 16 254 259 260 
898 183 252 221 269 
899 249 272 239 276 
900 160 181 172 251 
901 224 241 219 255 
902 223 217 231 272 
903 246 251 248 259 
904 22 207 260 262 
905 48 120 15 260 
906 170 247 217 275 
907 196 260 48 261 
908 120 16 259 260 
909 82 260 2 261 
910 245 215 225 255 
911 230 220 241 252 
912 155 24 25 258 
913 235 252 230 267 
914 242 218 272 273 
915 232 249 238 255 
916 225 232 255 266 
917 182 183 54 269 
918 173 208 174 257 
919 9 183 39 252 
920 2 198 214 260 
921 229 217 170 247 
922 8 263 252 269 
923 159 263 203 265 
924 15 156 208 257 
925 27 2 196 261 
926 202 200 163 253 
927 191 194 14 259 
928 251 252 246 263 
929 238 237 246 276 
930 237 231 240 247 
931 164 201 203 271 
932 237 239 272 276 
933 241 220 219 252 
934 187 195 202 271 
935 34 253 200 261 
936 2 22 198 260 
937 120 16 119 259 
938 179 256 222 273 
939 232 225 242 266 
940 177 9 184 252 
941 230 235 220 252 
942 10 160 254 263 
943 157 191 14 259 
944 223 272 256 275 
945 246 248 247 259 
946 230 238 236 246 
947 239 238 232 249 
948 22 258 82 262 
949 242 266 218 273 
950 162 215 185 255 
951 227 259 76 270 
952 240 237 247 270 
953 164 11 262 263 
954 203 189 265 271 
955 166 171 16 254 
956 32 93 4 274 
957 218 72 242 243 
958 234 238 230 255 
959 233 227 76 270 
960 226 267 244 270 
961 24 199 23 262 
962 189 203 201 271 
963 164 203 11 263 
964 224 245 234 255 
965 198 47 214 260 
966 230 252 236 267 
967 221 220 235 252 
968 159 203 204 265 
969 167 56 219 185 
970 192 257 247 275 
971 246 250 248 254 
972 224 255 219 265 
973 246 252 251 267 
974 223 222 179 256 
975 203 265 250 271 
976 166 207 254 260 
977 243 218 222 272 
978 228 76 259 270 
979 252 263 251 269 
980 172 181 191 251 
981 157 251 191 259 
982 243 239 242 272 
983 162 185 186 265 
984 170 217 176 275 
985 224 215 245 255 
986 184 204 167 265 
987 238 239 237 276 
988 162 255 264 266 
989 242 225 218 266 
990 233 240 227 270 
991 222 256 272 273 
992 41 254 207 262 
993 186 185 167 265 
994 203 263 250 265 
995 220 183 177 252 
996 162 188 211 266 
997 192 247 257 259 
998 191 157 172 251 
999 253 264 202 271 
1000 219 220 177 252 
1001 120 119 15 259 
1002 23 206 22 262 
1003 164 40 199 262 
1004 183 8 252 269 
1005 4 93 6 274 
1006 240 217 227 247 
1007 222 256 223 272 
1008 224 185 215 255 
1009 5 210 163 253 
1010 236 246 237 270 
1011 249 264 255 266 
1012 253 264 250 276 
1013 183 220 221 252 
1014 236 267 246 270 
1015 8 105 39 263 
1016 208 173 165 257 
1017 48 15 257 260 
1018 200 258 253 271 
1019 227 229 76 259 
1020 248 253 250 276 
1021 173 257 161 274 
1022 215 255 211 266 
1023 250 253 248 258 
1024 246 248 251 254 
1025 257 259 248 260 
1026 256 272 247 275 
1027 216 269 267 270 
1028 82 26 258 261 
1029 164 262 199 271 
1030 227 217 229 247 
1031 191 228 194 259 
1032 231 240 217 74 
1033 16 166 254 260 
1034 76 233 20 227 
1035 248 257 274 276 
1036 15 165 48 257 
1037 16 251 157 259 
1038 246 267 251 270 
1039 180 158 3 268 
1040 232 71 242 225 
1041 162 185 215 57 
1042 225 255 215 266 
1043 241 234 224 68 
1044 66 220 230 235 
1045 247 272 256 276 
1046 241 230 67 220 
1047 200 253 202 271 
1048 13 193 192 259 
1049 9 177 183 252 
1050 2 260 196 261 
1051 183 221 54 269 
1052 216 228 191 269 
1053 16 120 47 260 
1054 223 179 61 176 
1055 16 47 166 260 
1056 236 238 237 246 
1057 162 255 185 265 
1058 254 262 106 263 
1059 187 264 189 271 
1060 217 223 231 74 
1061 76 226 233 270 
1062 165 197 196 261 
1063 177 55 219 167 
1064 224 219 56 185 
1065 69 224 245 234 
1066 70 225 232 245 
1067 34 5 163 253 
1068 15 119 13 259 
1069 253 258 200 261 
1070 105 10 106 263 
1071 222 272 218 273 
1072 178 179 222 273 
1073 202 253 210 268 
1074 52 228 191 169 
1075 234 245 232 255 
1076 246 248 250 276 
1077 189 187 186 265 
1078 66 221 220 235 
1079 162 211 255 266 
1080 200 155 258 271 
1081 26 27 205 261 
1082 68 224 241 219 
1083 246 251 259 270 
1084 176 217 223 275 
1085 72 218 222 243 
1086 16 254 251 259 
1087 244 226 216 267 
1088 228 76 194 259 
1089 240 20 233 227 
1090 229 193 194 259 
1091 233 226 244 270 
1092 189 264 265 271 
1093 219 241 67 220 
1094 22 260 258 262 
1095 251 254 248 259 
1096 71 218 242 225 
1097 254 260 207 262 
1098 175 174 192 275 
1099 175 170 176 275 
1100 245 224 69 215 
1101 250 264 253 271 
1102 248 274 253 276 
1103 191 251 181 269 
1104 162 211 215 255 
1105 170 175 192 275 
1106 155 213 24 271 
1107 9 105 11 263 
1108 251 267 252 269 
1109 40 106 41 262 
1110 82 258 260 261 
1111 195 189 201 271 
1112 246 259 247 270 
1113 76 229 194 259 
1114 191 169 216 269 
1115 190 188 264 268 
1116 158 210 5 268 
1117 253 248 261 274 
1118 215 185 224 57 
1119 229 63 193 170 
1120 200 202 155 271 
1121 4 179 32 256 
1122 247 248 246 276 
1123 70 225 245 215 
1124 234 232 238 255 
1125 237 239 231 272 
1126 192 156 13 259 
1127 10 8 160 263 
1128 188 266 264 268 
1129 188 162 187 264 
1130 212 225 211 266 
1131 203 189 204 265 
1132 257 261 248 274 
1133 190 266 188 268 
1134 221 252 267 269 
1135 34 253 261 274 
1136 14 16 157 259 
1137 220 177 183 54 
1138 186 187 162 265 
1139 54 183 220 221 
1140 226 216 267 270 
1141 228 226 76 270 
1142 202 264 253 268 
1143 216 226 228 270 
1144 254 258 248 260 
1145 10 41 106 262 
1146 179 222 223 61 
1147 62 176 170 217 
1148 65 244 216 267 
1149 169 228 191 216 
1150 178 180 3 273 
1151 210 253 5 268 
1152 156 257 15 259 
1153 182 181 8 269 
1154 225 215 211 266 
1155 20 233 76 226 
1156 183 182 8 269 
1157 178 222 179 61 
1158 187 264 162 265 
1159 220 55 219 177 
1160 189 264 187 265 
1161 253 258 250 271 
1162 10 254 106 263 
1163 161 257 174 275 
1164 258 260 254 262 
1165 248 254 250 258 
1166 204 186 167 265 
1167 187 202 264 271 
1168 10 209 166 254 
1169 159 11 203 263 
1170 218 266 168 273 
1171 164 213 201 271 
1172 105 9 39 263 
1173 256 272 249 276 
1174 250 258 254 262 
1175 190 188 187 264 
1176 236 244 267 270 
1177 23 199 40 262 
1178 168 190 180 268 
1179 168 266 190 268 
1180 40 41 206 262 
1181 222 73 243 272 
1182 33 205 197 261 
1183 155 24 258 271 
1184 158 268 5 274 
1185 6 173 161 274 
1186 3 256 179 273 
1187 248 247 257 276 
1188 23 40 206 262 
1189 162 264 255 265 
1190 250 265 264 271 
1191 240 233 237 270 
1192 32 179 3 256 
1193 165 173 6 257 
1194 33 197 6 261 
1195 190 264 202 268 
1196 24 262 258 271 
1197 247 274 257 276 
1198 257 260 248 261 
1199 187 202 190 264 
1200 168 188 190 266 
1201 191 181 169 269 
1202 231 73 223 272 
1203 197 165 6 261 
1204 65 235 244 267 
1205 14 46 119 259 
1206 32 4 256 274 
1207 235 230 236 267 
1208 165 15 208 257 
1209 180 190 158 268 
1210 94 5 34 274 
1211 196 197 27 261 
1212 190 202 210 268 
1213 218 168 60 273 
1214 168 218 59 266 
1215 179 256 4 275 
1216 215 211 162 57 
1217 65 221 235 267 
1218 10 106 254 262 
1219 168 268 180 273 
1220 58 211 212 225 
1221 52 228 169 216 
1222 13 156 15 259 
1223 253 5 268 274 
1224 233 236 237 270 
1225 223 176 62 217 
1226 3 179 178 273 
1227 106 262 11 263 
1228 230 67 220 66 
1229 3 158 5 274 
1230 212 59 225 266 
1231 256 268 253 276 
1232 10 166 41 254 
1233 188 212 211 266 
1234 69 224 234 68 
1235 4 6 161 274 
1236 243 73 231 272 
1237 164 11 40 262 
1238 225 232 71 70 
1239 27 197 205 261 
1240 226 244 216 64 
1241 264 266 249 268 
1242 253 248 258 261 
1243 105 106 11 263 
1244 226 233 244 64 
1245 221 65 216 267 
1246 5 253 34 274 
1247 58 212 59 225 
1248 55 56 219 167 
1249 179 4 176 275 
1250 245 69 70 215 
1251 76 19 194 229 
1252 165 257 6 261 
1253 194 228 19 76 
1254 222 72 243 73 
1255 168 59 218 60 
1256 229 63 170 217 
1257 185 56 224 57 
1258 161 174 175 275 
1259 250 262 254 263 
1260 176 61 223 62 
1261 240 75 227 217 
1262 253 274 256 276 
1263 244 65 216 64 
1264 10 254 41 262 
1265 194 193 13 259 
1266 221 267 216 269 
1267 236 233 244 270 
1268 72 71 218 242 
1269 223 73 222 272 
1270 248 260 258 261 
1271 4 274 161 275 
1272 191 228 52 194 
1273 11 106 40 262 
1274 240 75 217 74 
1275 161 274 257 275 
1276 6 257 173 274 
1277 225 58 211 215 
1278 229 19 194 193 
1279 11 159 9 263 
1280 46 14 194 259 
1281 94 93 5 274 
1282 235 236 244 267 
1283 218 225 59 266 
1284 243 231 239 272 
1285 168 266 268 273 
1286 256 274 247 276 
1287 249 272 256 273 
1288 247 248 257 259 
1289 168 59 212 266 
1290 241 67 68 219 
1291 231 223 73 74 
1292 119 46 13 259 
1293 189 186 204 265 
1294 177 220 55 54 
1295 212 188 168 266 
1296 222 178 60 61 
1297 178 222 60 273 
1298 60 222 218 273 
1299 94 33 6 274 
1300 175 176 4 275 
1301 226 20 233 64 
1302 19 229 63 193 
1303 247 257 274 275 
1304 65 221 66 235 
1305 215 58 211 57 
1306 249 268 266 273 
1307 33 261 6 274 
1308 253 268 256 274 
1309 216 53 221 269 
1310 202 195 155 271 
1311 181 182 169 269 
1312 75 20 240 227 
1313 46 194 13 259 
1314 228 19 52 194 
1315 168 178 60 273 
1316 62 170 63 217 
1317 213 155 201 271 
1318 161 175 4 275 
1319 249 268 256 276 
1320 4 256 274 275 
1321 247 274 256 275 
1322 6 261 257 274 
1323 169 53 52 216 
1324 249 256 268 273 
1325 168 180 178 273 
1326 93 94 6 274 
1327 190 210 158 268 
1328 53 216 169 269 
1329 258 262 250 271 
1330 182 53 169 269 
1331 195 201 155 271 
1332 260 15 259 120 
1333 260 259 15 257 
1334 272 217 275 223 
1335 272 275 217 247 
1336 230 255 241 234 
1337 241 255 230 252 
1338 274 3 32 93 
1339 274 32 3 256 
1340 269 228 270 216 
1341 269 270 228 251 
1342 185 219 265 224 
1343 185 265 219 167 
1344 262 82 24 258 
1345 262 24 82 23 
1346 271 199 24 262 
1347 271 24 199 213 
1348 274 33 34 94 
1349 274 34 33 261 
1350 54 269 53 182 
1351 53 269 54 221 
1352 273 3 268 180 
1353 273 268 3 256 
1354 268 3 274 158 
1355 268 274 3 256 
1356 276 268 264 249 
1357 276 264 268 253 
3 6 4 944
1358 130 282 297 311 
1359 81 78 319 338 
1360 12 107 108 318 
1361 84 28 92 309 
1362 130 297 282 331 
1363 130 297 280 316 
1364 1 290 78 338 
1365 87 90 89 309 
1366 81 78 200 319 
1367 278 283 299 321 
1368 186 189 204 315 
1369 277 306 310 327 
1370 130 280 297 331 
1371 277 304 18 307 
1372 278 300 283 321 
1373 189 310 281 315 
1374 173 291 30 298 
1375 37 107 12 325 
1376 35 102 98 328 
1377 78 1 80 290 
1378 171 166 44 296 
1379 278 321 299 324 
1380 281 299 288 304 
1381 110 116 43 333 
1382 149 304 288 321 
1383 35 315 102 328 
1384 300 314 283 321 
1385 88 173 30 298 
1386 283 287 278 299 
1387 175 170 297 311 
1388 288 310 204 315 
1389 196 326 121 340 
1390 85 31 305 329 
1391 155 200 78 319 
1392 107 108 290 334 
1393 299 304 281 324 
1394 77 290 1 326 
1395 279 277 286 320 
1396 21 79 196 326 
1397 288 304 149 310 
1398 278 142 307 323 
1399 35 288 315 328 
1400 21 326 196 340 
1401 154 280 294 316 
1402 1 21 77 326 
1403 84 89 90 309 
1404 37 12 299 325 
1405 130 170 297 316 
1406 30 173 165 291 
1407 130 297 170 311 
1408 300 323 313 336 
1409 17 121 45 303 
1410 133 288 310 322 
1411 122 17 44 337 
1412 186 310 189 315 
1413 97 318 101 328 
1414 35 159 102 315 
1415 279 320 286 331 
1416 77 290 296 334 
1417 43 294 42 333 
1418 163 96 34 335 
1419 77 80 290 334 
1420 149 288 133 322 
1421 277 304 281 310 
1422 81 25 200 78 
1423 283 314 302 321 
1424 171 296 44 308 
1425 280 331 307 339 
1426 50 307 280 331 
1427 303 324 287 326 
1428 97 38 101 318 
1429 280 307 50 323 
1430 288 304 299 321 
1431 288 292 149 321 
1432 150 314 300 321 
1433 167 288 204 322 
1434 38 296 166 308 
1435 99 37 12 299 
1436 145 277 18 307 
1437 278 299 287 324 
1438 149 292 288 322 
1439 150 300 278 321 
1440 136 277 306 310 
1441 277 310 281 327 
1442 104 103 314 328 
1443 170 192 297 316 
1444 136 304 277 310 
1445 279 277 285 286 
1446 77 80 1 290 
1447 175 170 192 297 
1448 24 213 78 80 
1449 299 321 304 324 
1450 288 299 283 321 
1451 284 323 278 339 
1452 142 150 278 321 
1453 80 23 107 334 
1454 305 309 87 329 
1455 281 310 288 315 
1456 213 78 80 325 
1457 77 296 290 326 
1458 104 103 101 314 
1459 278 300 150 323 
1460 122 44 296 337 
1461 282 295 151 320 
1462 108 166 38 334 
1463 172 308 157 313 
1464 122 303 17 337 
1465 79 197 291 335 
1466 90 87 289 309 
1467 36 183 35 302 
1468 166 296 38 334 
1469 204 288 167 310 
1470 178 29 289 295 
1471 1 326 290 338 
1472 171 166 296 308 
1473 173 291 298 330 
1474 36 98 104 328 
1475 278 300 284 308 
1476 281 304 288 310 
1477 279 307 277 331 
1478 281 285 277 301 
1479 85 31 87 305 
1480 149 133 288 310 
1481 300 313 191 336 
1482 108 38 318 334 
1483 287 299 290 324 
1484 157 313 308 337 
1485 184 167 204 322 
1486 38 296 308 318 
1487 30 197 95 291 
1488 107 290 12 325 
1489 281 310 189 327 
1490 186 204 310 315 
1491 35 159 315 322 
1492 115 112 113 312 
1493 312 333 117 337 
1494 286 279 297 298 
1495 279 286 282 331 
1496 278 283 300 308 
1497 284 287 278 308 
1498 196 291 121 326 
1499 162 310 306 327 
1500 95 291 197 335 
1501 116 294 43 333 
1502 107 325 80 334 
1503 142 278 150 323 
1504 96 31 7 332 
1505 18 277 136 304 
1506 209 101 38 308 
1507 280 323 284 339 
1508 287 324 290 326 
1509 290 324 285 326 
1510 38 308 101 318 
1511 38 166 209 308 
1512 290 326 285 338 
1513 85 305 87 329 
1514 79 291 196 326 
1515 23 206 107 334 
1516 308 313 284 337 
1517 292 314 131 321 
1518 130 132 282 311 
1519 44 308 296 337 
1520 12 290 107 318 
1521 167 310 288 322 
1522 36 104 314 328 
1523 80 77 23 334 
1524 122 296 303 337 
1525 121 17 122 303 
1526 35 302 288 328 
1527 279 277 320 331 
1528 203 189 301 315 
1529 277 307 279 324 
1530 87 89 86 309 
1531 103 101 314 328 
1532 79 291 326 335 
1533 279 324 307 339 
1534 277 307 145 320 
1535 197 196 79 291 
1536 47 122 296 340 
1537 158 90 87 289 
1538 97 299 318 328 
1539 92 91 84 309 
1540 283 278 287 308 
1541 107 290 108 318 
1542 279 324 303 326 
1543 290 108 318 334 
1544 51 307 142 323 
1545 154 280 49 294 
1546 279 280 293 339 
1547 301 319 78 338 
1548 51 50 307 323 
1549 139 306 162 310 
1550 286 309 305 329 
1551 278 307 304 324 
1552 277 279 285 324 
1553 14 16 114 157 
1554 169 300 131 314 
1555 280 297 293 316 
1556 286 320 282 331 
1557 132 295 282 311 
1558 282 286 279 297 
1559 164 37 315 325 
1560 170 176 130 311 
1561 101 308 283 318 
1562 121 326 303 340 
1563 88 297 173 298 
1564 285 286 277 305 
1565 121 291 45 303 
1566 282 320 144 331 
1567 17 303 45 317 
1568 319 335 81 338 
1569 164 203 201 325 
1570 4 6 88 161 
1571 307 324 278 339 
1572 144 130 282 331 
1573 50 51 307 331 
1574 49 294 280 323 
1575 166 108 41 334 
1576 291 298 285 332 
1577 197 79 205 335 
1578 142 278 123 321 
1579 79 335 326 338 
1580 278 304 123 321 
1581 281 301 189 315 
1582 279 297 293 331 
1583 165 291 173 330 
1584 84 90 29 295 
1585 35 315 288 322 
1586 278 304 321 324 
1587 123 304 278 307 
1588 292 302 314 321 
1589 44 171 308 337 
1590 121 196 165 291 
1591 203 301 201 325 
1592 78 290 80 325 
1593 115 293 116 312 
1594 12 97 99 299 
1595 279 303 317 330 
1596 283 299 288 328 
1597 296 318 38 334 
1598 203 189 201 301 
1599 186 189 310 327 
1600 15 13 113 156 
1601 279 291 303 330 
1602 290 301 78 338 
1603 281 304 277 324 
1604 153 323 300 336 
1605 123 278 142 307 
1606 95 332 291 335 
1607 285 298 329 332 
1608 285 324 279 326 
1609 87 86 85 329 
1610 167 133 185 310 
1611 155 200 25 78 
1612 44 166 122 296 
1613 155 78 301 319 
1614 89 84 91 309 
1615 101 100 97 328 
1616 178 179 29 295 
1617 110 117 115 333 
1618 7 31 329 332 
1619 163 319 96 335 
1620 203 315 301 325 
1621 290 299 12 325 
1622 290 296 287 326 
1623 175 176 170 311 
1624 172 300 308 313 
1625 185 139 162 310 
1626 175 192 174 297 
1627 195 301 189 327 
1628 151 282 132 295 
1629 121 165 45 291 
1630 160 101 209 308 
1631 189 301 281 327 
1632 112 111 113 317 
1633 197 205 95 335 
1634 10 8 101 160 
1635 150 131 300 314 
1636 88 91 92 311 
1637 287 299 283 318 
1638 128 295 289 320 
1639 111 17 45 317 
1640 83 85 86 329 
1641 170 130 193 316 
1642 173 88 161 297 
1643 121 303 122 340 
1644 296 303 287 326 
1645 116 115 113 293 
1646 144 282 151 320 
1647 279 307 331 339 
1648 112 109 111 317 
1649 179 28 295 311 
1650 148 280 154 316 
1651 97 12 38 318 
1652 286 298 297 309 
1653 137 306 277 320 
1654 287 284 303 337 
1655 30 165 197 291 
1656 287 308 284 337 
1657 85 7 31 329 
1658 304 307 277 324 
1659 97 299 12 318 
1660 30 291 95 332 
1661 152 289 168 306 
1662 293 116 312 333 
1663 125 320 307 331 
1664 150 131 314 321 
1665 182 169 131 314 
1666 200 81 319 335 
1667 154 294 49 336 
1668 132 176 295 311 
1669 284 317 303 337 
1670 208 165 173 330 
1671 285 301 290 338 
1672 28 84 29 295 
1673 128 132 179 295 
1674 47 122 166 296 
1675 136 18 145 277 
1676 47 296 198 340 
1677 185 126 139 310 
1678 30 95 197 33 
1679 284 300 278 323 
1680 290 299 287 318 
1681 285 279 291 326 
1682 122 303 296 340 
1683 148 280 130 331 
1684 152 168 212 306 
1685 133 310 167 322 
1686 153 300 191 336 
1687 90 289 29 295 
1688 7 83 30 298 
1689 157 308 171 337 
1690 189 203 204 315 
1691 44 17 109 337 
1692 173 298 297 330 
1693 214 196 121 340 
1694 287 283 308 318 
1695 171 209 166 308 
1696 291 279 298 330 
1697 35 98 36 302 
1698 145 137 277 320 
1699 136 277 137 306 
1700 128 178 289 295 
1701 134 149 304 310 
1702 51 142 50 323 
1703 277 285 281 324 
1704 168 178 180 289 
1705 47 122 44 166 
1706 281 290 285 301 
1707 12 299 290 318 
1708 87 31 210 305 
1709 151 295 128 320 
1710 280 293 297 331 
1711 285 298 286 329 
1712 143 307 51 331 
1713 279 303 291 326 
1714 29 179 28 295 
1715 163 34 200 335 
1716 284 308 300 313 
1717 148 130 280 316 
1718 287 303 296 337 
1719 49 294 323 336 
1720 91 309 92 311 
1721 115 117 112 312 
1722 326 335 332 338 
1723 5 3 87 158 
1724 146 304 149 321 
1725 77 206 23 334 
1726 166 108 38 41 
1727 138 289 306 320 
1728 179 132 176 295 
1729 185 133 126 310 
1730 111 317 45 330 
1731 101 318 283 328 
1732 138 128 289 320 
1733 282 297 279 331 
1734 299 315 37 325 
1735 121 165 196 48 
1736 279 286 285 298 
1737 193 130 154 316 
1738 160 308 172 314 
1739 80 325 290 334 
1740 286 305 285 329 
1741 130 176 132 311 
1742 135 306 139 310 
1743 98 103 104 328 
1744 87 309 86 329 
1745 279 331 280 339 
1746 27 79 197 196 
1747 283 288 302 328 
1748 190 289 305 306 
1749 153 147 300 323 
1750 307 320 277 331 
1751 116 43 294 316 
1752 160 101 308 314 
1753 152 138 289 306 
1754 88 30 83 298 
1755 112 113 312 317 
1756 202 319 301 327 
1757 283 308 101 314 
1758 290 299 281 324 
1759 213 155 24 78 
1760 146 134 149 304 
1761 43 42 110 333 
1762 287 296 308 337 
1763 186 187 189 327 
1764 285 290 281 324 
1765 186 204 167 310 
1766 87 305 289 309 
1767 77 334 296 340 
1768 121 291 303 326 
1769 157 172 171 308 
1770 297 316 174 330 
1771 83 298 7 329 
1772 303 317 17 337 
1773 45 291 165 330 
1774 125 144 320 331 
1775 128 179 178 295 
1776 284 293 280 339 
1777 83 86 309 329 
1778 128 151 132 295 
1779 107 206 108 334 
1780 195 202 301 327 
1781 279 317 303 339 
1782 293 297 279 330 
1783 136 306 135 310 
1784 291 332 326 335 
1785 141 149 292 321 
1786 288 299 281 315 
1787 91 86 89 309 
1788 45 165 208 330 
1789 28 92 309 311 
1790 290 318 296 334 
1791 303 326 296 340 
1792 279 285 291 298 
1793 207 198 296 334 
1794 278 287 284 339 
1795 37 299 99 315 
1796 208 173 174 330 
1797 168 152 178 289 
1798 31 319 305 329 
1799 178 152 128 289 
1800 79 27 21 196 
1801 192 174 297 316 
1802 173 161 174 297 
1803 185 186 167 310 
1804 290 325 107 334 
1805 280 279 293 331 
1806 50 143 51 331 
1807 44 114 171 337 
1808 153 129 191 300 
1809 202 305 319 327 
1810 170 193 192 316 
1811 173 297 174 330 
1812 285 319 301 338 
1813 101 103 100 328 
1814 297 298 88 309 
1815 160 209 172 308 
1816 280 294 284 323 
1817 207 22 198 334 
1818 113 317 111 330 
1819 166 41 207 334 
1820 211 162 139 306 
1821 294 313 284 323 
1822 145 307 125 320 
1823 285 329 319 332 
1824 189 195 201 301 
1825 168 289 190 306 
1826 279 317 293 330 
1827 286 277 305 320 
1828 104 101 160 314 
1829 179 295 176 311 
1830 131 169 129 300 
1831 305 319 285 329 
1832 17 317 109 337 
1833 77 21 22 340 
1834 149 127 292 322 
1835 114 118 157 313 
1836 130 132 144 282 
1837 49 280 50 323 
1838 37 107 164 40 
1839 136 145 137 277 
1840 84 90 295 309 
1841 287 303 284 339 
1842 9 11 102 159 
1843 282 286 297 309 
1844 284 313 300 323 
1845 210 305 31 319 
1846 172 308 300 314 
1847 168 188 212 306 
1848 112 312 109 317 
1849 283 302 288 321 
1850 197 165 196 291 
1851 286 305 289 320 
1852 96 319 332 335 
1853 164 315 203 325 
1854 210 202 305 319 
1855 158 289 87 305 
1856 296 334 198 340 
1857 303 317 284 339 
1858 128 152 138 289 
1859 147 150 300 323 
1860 45 208 113 330 
1861 47 166 198 296 
1862 155 78 213 301 
1863 293 294 116 333 
1864 171 172 209 308 
1865 88 309 91 311 
1866 281 301 277 327 
1867 162 186 310 327 
1868 195 189 187 327 
1869 84 295 28 309 
1870 206 23 107 40 
1871 289 305 286 309 
1872 188 162 306 327 
1873 289 295 90 309 
1874 185 162 186 310 
1875 30 298 291 332 
1876 185 167 56 133 
1877 100 102 99 328 
1878 148 154 130 316 
1879 300 308 283 314 
1880 174 161 175 297 
1881 96 319 31 332 
1882 134 304 136 310 
1883 113 111 45 330 
1884 207 296 166 334 
1885 80 199 213 325 
1886 200 319 163 335 
1887 156 174 316 330 
1888 297 298 279 330 
1889 168 190 188 306 
1890 281 299 290 325 
1891 283 318 299 328 
1892 155 202 200 319 
1893 88 83 86 309 
1894 30 95 7 332 
1895 283 314 101 328 
1896 30 7 298 332 
1897 92 161 88 311 
1898 190 306 305 327 
1899 129 169 191 300 
1900 153 147 129 300 
1901 287 308 296 318 
1902 108 38 12 318 
1903 121 45 165 48 
1904 127 149 133 322 
1905 164 107 37 325 
1906 118 42 313 333 
1907 131 292 182 314 
1908 197 79 27 205 
1909 198 166 207 296 
1910 158 87 210 305 
1911 83 309 298 329 
1912 152 212 124 306 
1913 332 335 319 338 
1914 280 293 284 294 
1915 293 316 297 330 
1916 305 306 277 327 
1917 141 292 131 321 
1918 190 305 202 327 
1919 49 323 153 336 
1920 179 176 28 311 
1921 24 213 80 199 
1922 21 198 22 340 
1923 279 293 317 339 
1924 148 130 144 331 
1925 213 301 78 325 
1926 319 329 31 332 
1927 288 302 35 322 
1928 31 96 163 319 
1929 285 326 291 332 
1930 142 123 150 321 
1931 96 31 163 34 
1932 115 113 293 312 
1933 78 301 290 325 
1934 36 314 302 328 
1935 28 176 4 311 
1936 138 306 137 320 
1937 123 142 51 307 
1938 14 118 42 313 
1939 157 114 313 337 
1940 126 185 56 133 
1941 156 208 174 330 
1942 141 146 149 321 
1943 288 302 292 321 
1944 117 312 115 333 
1945 158 190 180 289 
1946 111 109 17 317 
1947 301 315 281 325 
1948 36 302 98 328 
1949 281 315 299 325 
1950 211 212 188 306 
1951 168 180 190 289 
1952 190 289 158 305 
1953 144 132 151 282 
1954 35 98 302 328 
1955 136 134 146 304 
1956 195 187 202 327 
1957 287 296 290 318 
1958 313 323 294 336 
1959 278 324 287 339 
1960 127 55 177 322 
1961 162 211 188 306 
1962 145 18 125 307 
1963 35 159 9 102 
1964 147 150 129 300 
1965 123 18 304 307 
1966 131 129 150 300 
1967 123 18 136 304 
1968 190 210 202 305 
1969 149 134 133 310 
1970 141 149 127 292 
1971 83 7 85 329 
1972 179 132 128 61 
1973 210 31 163 319 
1974 136 137 135 306 
1975 43 42 294 336 
1976 156 113 208 330 
1977 162 187 186 327 
1978 188 187 162 327 
1979 157 171 114 337 
1980 200 26 81 335 
1981 123 136 146 304 
1982 126 135 139 310 
1983 211 139 124 306 
1984 7 329 298 332 
1985 161 297 88 311 
1986 117 110 118 333 
1987 18 51 125 307 
1988 135 124 139 306 
1989 188 306 190 327 
1990 91 88 86 309 
1991 154 148 49 280 
1992 61 179 132 176 
1993 88 298 83 309 
1994 182 181 169 314 
1995 177 292 127 322 
1996 155 301 202 319 
1997 201 213 164 325 
1998 150 141 131 321 
1999 88 297 309 311 
2000 50 49 148 280 
2001 127 133 55 322 
2002 176 170 130 62 
2003 187 188 190 327 
2004 14 157 118 313 
2005 143 148 144 331 
2006 181 300 169 314 
2007 92 28 4 311 
2008 193 63 130 170 
2009 282 286 295 320 
2010 164 199 40 325 
2011 190 202 187 327 
2012 52 153 129 191 
2013 100 103 98 328 
2014 205 197 95 33 
2015 164 40 107 325 
2016 95 96 332 335 
2017 1 79 21 326 
2018 154 194 193 336 
2019 191 172 157 313 
2020 282 309 297 311 
2021 95 96 7 332 
2022 140 138 137 320 
2023 145 140 137 320 
2024 140 144 151 320 
2025 179 128 178 61 
2026 200 34 26 335 
2027 131 141 127 292 
2028 289 295 286 320 
2029 27 2 21 196 
2030 95 34 96 335 
2031 59 168 212 152 
2032 286 295 289 309 
2033 125 307 143 331 
2034 113 156 116 316 
2035 190 158 210 305 
2036 172 300 181 314 
2037 131 182 53 169 
2038 178 3 29 179 
2039 126 57 185 139 
2040 140 125 144 320 
2041 49 147 153 323 
2042 182 292 183 314 
2043 299 315 288 328 
2044 175 297 161 311 
2045 116 294 293 316 
2046 191 52 153 336 
2047 162 185 57 139 
2048 284 317 293 339 
2049 104 8 36 314 
2050 211 124 212 306 
2051 129 52 191 169 
2052 154 49 194 336 
2053 138 140 128 320 
2054 109 317 312 337 
2055 124 138 152 306 
2056 326 332 285 338 
2057 160 172 181 314 
2058 147 142 150 323 
2059 140 151 128 320 
2060 196 214 121 48 
2061 4 161 92 311 
2062 293 284 312 317 
2063 213 199 164 325 
2064 173 6 30 165 
2065 133 134 126 310 
2066 294 284 313 333 
2067 2 22 21 198 
2068 123 51 18 307 
2069 147 49 50 323 
2070 155 25 24 78 
2071 63 130 154 193 
2072 88 6 30 173 
2073 198 21 2 340 
2074 107 108 206 41 
2075 206 77 22 334 
2076 113 116 293 316 
2077 81 1 78 338 
2078 127 54 131 292 
2079 201 155 213 301 
2080 153 19 49 336 
2081 191 194 52 336 
2082 205 34 95 335 
2083 183 292 177 322 
2084 191 300 172 313 
2085 113 156 316 330 
2086 1 79 326 338 
2087 141 150 123 321 
2088 130 132 176 62 
2089 131 54 182 292 
2090 202 155 195 301 
2091 210 163 202 319 
2092 177 54 127 292 
2093 135 134 136 310 
2094 167 184 177 322 
2095 180 3 158 289 
2096 114 16 44 171 
2097 144 125 143 331 
2098 171 16 44 166 
2099 206 41 108 334 
2100 137 124 135 306 
2101 53 129 131 169 
2102 192 156 174 316 
2103 183 54 177 292 
2104 57 185 56 126 
2105 114 14 157 118 
2106 302 314 283 328 
2107 179 4 28 176 
2108 152 212 59 124 
2109 88 92 4 161 
2110 206 22 207 334 
2111 131 182 54 53 
2112 79 26 205 335 
2113 183 182 54 292 
2114 285 332 319 338 
2115 205 26 34 335 
2116 198 2 214 340 
2117 42 333 294 336 
2118 140 145 125 320 
2119 293 294 280 316 
2120 203 159 204 315 
2121 8 101 160 104 
2122 113 293 317 330 
2123 293 312 113 317 
2124 201 301 213 325 
2125 163 200 202 319 
2126 154 19 63 193 
2127 8 104 160 314 
2128 209 38 10 166 
2129 128 60 178 61 
2130 292 302 288 322 
2131 35 36 39 183 
2132 181 182 8 314 
2133 127 177 55 54 
2134 135 126 134 310 
2135 60 178 152 128 
2136 81 335 79 338 
2137 15 113 45 208 
2138 147 50 142 323 
2139 167 55 56 133 
2140 109 114 44 337 
2141 191 181 172 300 
2142 79 81 26 335 
2143 176 132 61 62 
2144 121 47 214 340 
2145 113 316 293 330 
2146 42 14 313 336 
2147 125 51 143 307 
2148 98 102 100 328 
2149 124 137 138 306 
2150 28 309 295 311 
2151 59 212 58 124 
2152 9 35 183 322 
2153 81 79 1 338 
2154 28 29 32 179 
2155 19 194 49 336 
2156 118 110 42 333 
2157 170 63 130 62 
2158 201 195 155 301 
2159 49 19 154 194 
2160 175 4 176 311 
2161 34 205 95 33 
2162 57 211 162 139 
2163 121 122 47 340 
2164 282 295 286 309 
2165 26 27 79 205 
2166 52 129 53 169 
2167 19 154 194 193 
2168 208 45 15 165 
2169 43 116 13 316 
2170 5 210 87 31 
2171 207 41 206 334 
2172 159 11 102 315 
2173 13 116 113 156 
2174 175 161 4 311 
2175 22 23 77 206 
2176 193 13 192 316 
2177 165 6 30 197 
2178 41 206 107 40 
2179 11 159 203 315 
2180 312 317 284 337 
2181 98 35 9 102 
2182 10 101 38 209 
2183 168 60 178 152 
2184 173 88 6 161 
2185 139 58 211 124 
2186 197 6 30 33 
2187 290 301 281 325 
2188 212 211 58 124 
2189 116 156 13 316 
2190 163 210 5 31 
2191 47 198 214 340 
2192 181 191 169 300 
2193 114 16 171 157 
2194 191 14 194 336 
2195 57 58 211 139 
2196 42 313 333 336 
2197 113 15 156 208 
2198 282 295 309 311 
2199 298 309 286 329 
2200 60 168 59 152 
2201 3 158 90 87 
2202 191 157 14 313 
2203 8 160 181 314 
2204 214 47 121 48 
2205 191 313 14 336 
2206 80 23 24 199 
2207 209 10 101 160 
2208 43 42 194 46 
2209 200 26 25 81 
2210 9 177 184 322 
2211 47 44 16 166 
2212 38 10 166 41 
2213 43 194 42 336 
2214 37 164 11 40 
2215 192 13 156 316 
2216 210 158 5 87 
2217 9 183 177 322 
2218 39 9 35 183 
2219 294 333 313 336 
2220 165 45 15 48 
2221 32 4 28 179 
2222 5 163 31 34 
2223 32 29 3 179 
2224 39 36 8 183 
2225 194 42 14 46 
2226 42 194 14 336 
2227 194 13 43 46 
2228 118 117 313 114 
2229 118 313 117 333 
2230 337 313 117 114 
2231 337 117 313 333 
2232 315 322 204 288 
2233 339 323 307 280 
2234 339 307 323 278 
2235 77 340 326 21 
2236 326 340 77 296 
2237 333 116 115 110 
2238 333 115 116 312 
2239 90 3 289 158 
2240 90 289 3 29 
2241 303 324 339 287 
2242 339 324 303 279 
2243 109 337 112 114 
2244 109 112 337 312 
2245 117 112 337 114 
2246 117 337 112 312 
2247 330 303 45 291 
2248 330 45 303 317 
2249 331 50 148 280 
2250 331 148 50 143 
2251 322 159 204 184 
2252 322 204 159 315 
2253 305 320 306 289 
2254 306 320 305 277 
2255 327 277 285 301 
2256 285 277 327 305 
2257 285 319 327 301 
2258 327 319 285 305 
2259 22 340 334 77 
2260 334 340 22 198 
2261 321 146 123 141 
2262 321 123 146 304 
2263 328 97 99 100 
2264 328 99 97 299 
2265 315 99 11 102 
2266 315 11 99 37 
2267 183 314 8 182 
2268 8 314 183 36 
2269 340 2 196 21 
2270 340 196 2 214 
2271 316 194 13 43 
2272 316 13 194 193 
2273 289 3 178 180 
2274 289 178 3 29 
2275 40 325 80 107 
2276 80 325 40 199 
2277 80 23 40 107 
2278 40 23 80 199 
2279 322 55 167 133 
2280 322 167 55 177 
2281 43 336 316 194 
2282 43 316 336 294 
2283 193 316 336 194 
2284 302 183 314 36 
2285 302 314 183 292 
2286 302 183 322 292 
2287 302 322 183 35 
2288 328 99 315 102 
2289 328 315 99 299 
2290 322 9 159 184 
2291 322 159 9 35 
2292 315 11 164 203 
2293 315 164 11 37 
2294 333 284 337 312 
2295 333 337 284 313 
2296 336 19 52 153 
2297 336 52 19 194 
2298 333 293 284 312 
2299 333 284 293 294 
2300 316 336 154 193 
2301 316 154 336 294 
$EndElements
